<svg width="1002" height="544" viewBox="0 0 1002 544" fill="none" xmlns="http://www.w3.org/2000/svg"><mask id="path-1-outside-1_85_331" maskUnits="userSpaceOnUse" x="167" y="396.801" width="835" height="147" fill="#000"><path fill="#fff" d="M167 396.801h835v147H167z"/><path d="M261.137 507.851h-29.193v-43.826h-33.751v43.826H169V400.346h29.193v39.855h33.751v-39.855h29.193v107.505zm93.787 0l-5.294-20.148h-34.928l-5.442 20.148h-31.913l35.075-107.947h38.752l35.517 107.947h-31.767zM343.6 463.878l-4.632-17.648c-1.079-3.921-2.402-8.995-3.971-15.221-1.52-6.226-2.525-10.687-3.015-13.383-.441 2.5-1.324 6.618-2.647 12.353-1.275 5.736-4.143 17.036-8.604 33.899H343.6zm59.3-63.532h37.502c14.609 0 25.443 2.181 32.502 6.544 7.108 4.314 10.662 11.055 10.662 20.222 0 6.029-1.544 11.177-4.632 15.442-3.089 4.265-7.157 7.01-12.207 8.235v.736c6.667 1.765 11.496 4.706 14.486 8.824 2.991 4.118 4.486 9.461 4.486 16.03 0 9.755-3.677 17.452-11.03 23.089-7.304 5.589-17.28 8.383-29.928 8.383H402.9V400.346zm29.046 41.252h8.751c4.166 0 7.377-.858 9.632-2.574 2.304-1.716 3.456-4.265 3.456-7.647 0-6.03-4.559-9.045-13.677-9.045h-8.162v19.266zm0 21.251v22.575h10.221c9.069 0 13.604-3.824 13.604-11.472 0-3.578-1.226-6.323-3.677-8.235-2.402-1.912-5.907-2.868-10.515-2.868h-9.633zm124.818-40.223c-6.912 0-12.304 2.843-16.177 8.53-3.873 5.638-5.809 13.432-5.809 23.384 0 20.687 7.868 31.031 23.604 31.031 4.755 0 9.363-.662 13.824-1.986a138.37 138.37 0 0013.457-4.779v24.56c-8.971 3.97-19.119 5.956-30.443 5.956-16.226 0-28.678-4.706-37.355-14.119-8.628-9.412-12.942-23.015-12.942-40.81 0-11.129 2.084-20.908 6.251-29.34 4.216-8.432 10.245-14.903 18.089-19.413 7.892-4.559 17.158-6.839 27.795-6.839 11.619 0 22.722 2.525 33.311 7.574l-8.898 22.869a100.008 100.008 0 00-11.912-4.706c-3.971-1.275-8.236-1.912-12.795-1.912zm118.274 85.225h-63.827V400.346h63.827v23.31h-34.781v16.912h32.208v23.31h-32.208v20.295h34.781v23.678zm95.037-107.505v23.457h-42.502v84.048h-29.192V400.346h71.694zm112.128 140.963h-28.311v-33.458h-62.65v33.458h-28.31v-57.283h8.897c6.422-10.883 11.717-23.457 15.884-37.722 4.166-14.315 6.863-29.634 8.088-45.958h71.695v83.68h14.707v57.283zm-43.973-57.283v-59.929h-19.119c-2.01 20.981-7.525 40.958-16.545 59.929h35.664zm128.862 23.825l-5.294-20.148H926.87l-5.442 20.148h-31.913l35.075-107.947h38.752l35.517 107.947h-31.767zm-11.324-43.973l-4.632-17.648c-1.079-3.921-2.402-8.995-3.971-15.221-1.52-6.226-2.525-10.687-3.015-13.383-.441 2.5-1.324 6.618-2.647 12.353-1.275 5.736-4.143 17.036-8.604 33.899h22.869z"/></mask><path d="M261.137 507.851h-29.193v-43.826h-33.751v43.826H169V400.346h29.193v39.855h33.751v-39.855h29.193v107.505zm93.787 0l-5.294-20.148h-34.928l-5.442 20.148h-31.913l35.075-107.947h38.752l35.517 107.947h-31.767zM343.6 463.878l-4.632-17.648c-1.079-3.921-2.402-8.995-3.971-15.221-1.52-6.226-2.525-10.687-3.015-13.383-.441 2.5-1.324 6.618-2.647 12.353-1.275 5.736-4.143 17.036-8.604 33.899H343.6zm59.3-63.532h37.502c14.609 0 25.443 2.181 32.502 6.544 7.108 4.314 10.662 11.055 10.662 20.222 0 6.029-1.544 11.177-4.632 15.442-3.089 4.265-7.157 7.01-12.207 8.235v.736c6.667 1.765 11.496 4.706 14.486 8.824 2.991 4.118 4.486 9.461 4.486 16.03 0 9.755-3.677 17.452-11.03 23.089-7.304 5.589-17.28 8.383-29.928 8.383H402.9V400.346zm29.046 41.252h8.751c4.166 0 7.377-.858 9.632-2.574 2.304-1.716 3.456-4.265 3.456-7.647 0-6.03-4.559-9.045-13.677-9.045h-8.162v19.266zm0 21.251v22.575h10.221c9.069 0 13.604-3.824 13.604-11.472 0-3.578-1.226-6.323-3.677-8.235-2.402-1.912-5.907-2.868-10.515-2.868h-9.633zm124.818-40.223c-6.912 0-12.304 2.843-16.177 8.53-3.873 5.638-5.809 13.432-5.809 23.384 0 20.687 7.868 31.031 23.604 31.031 4.755 0 9.363-.662 13.824-1.986a138.37 138.37 0 0013.457-4.779v24.56c-8.971 3.97-19.119 5.956-30.443 5.956-16.226 0-28.678-4.706-37.355-14.119-8.628-9.412-12.942-23.015-12.942-40.81 0-11.129 2.084-20.908 6.251-29.34 4.216-8.432 10.245-14.903 18.089-19.413 7.892-4.559 17.158-6.839 27.795-6.839 11.619 0 22.722 2.525 33.311 7.574l-8.898 22.869a100.008 100.008 0 00-11.912-4.706c-3.971-1.275-8.236-1.912-12.795-1.912zm118.274 85.225h-63.827V400.346h63.827v23.31h-34.781v16.912h32.208v23.31h-32.208v20.295h34.781v23.678zm95.037-107.505v23.457h-42.502v84.048h-29.192V400.346h71.694zm112.128 140.963h-28.311v-33.458h-62.65v33.458h-28.31v-57.283h8.897c6.422-10.883 11.717-23.457 15.884-37.722 4.166-14.315 6.863-29.634 8.088-45.958h71.695v83.68h14.707v57.283zm-43.973-57.283v-59.929h-19.119c-2.01 20.981-7.525 40.958-16.545 59.929h35.664zm128.862 23.825l-5.294-20.148H926.87l-5.442 20.148h-31.913l35.075-107.947h38.752l35.517 107.947h-31.767zm-11.324-43.973l-4.632-17.648c-1.079-3.921-2.402-8.995-3.971-15.221-1.52-6.226-2.525-10.687-3.015-13.383-.441 2.5-1.324 6.618-2.647 12.353-1.275 5.736-4.143 17.036-8.604 33.899h22.869z" stroke="#EDEDED" stroke-width="4" mask="url(#path-1-outside-1_85_331)"/><path d="M81.811 368.997l-11.177-39.362h-.336c.523 6.704.785 11.912.785 15.625v23.737H58v-54.65h19.662l11.4 38.8h.3l11.177-38.8h19.699v54.65h-13.569v-23.961c0-1.246.012-2.629.037-4.149.05-1.52.225-5.246.524-11.177h-.337l-11.027 39.287H81.811zm52.498-54.65h13.158v23.475c0 2.492-.199 7.476-.598 14.952h.299l21.793-38.427h18.241v54.65h-13.083V346.12c0-3.464.225-8.647.673-15.55h-.299l-21.979 38.427h-18.205v-54.65zm106.7 17.382c0 6.105-1.807 10.827-5.42 14.167-3.589 3.314-8.697 4.971-15.326 4.971h-4.149v18.13h-14.765v-54.65h18.914c6.903 0 12.086 1.507 15.55 4.523 3.464 3.015 5.196 7.301 5.196 12.859zm-24.895 7.102h2.691c2.218 0 3.975-.623 5.271-1.869 1.32-1.246 1.981-2.966 1.981-5.159 0-3.688-2.044-5.532-6.131-5.532h-3.812v12.56zm87.037 2.766c0 9.195-2.255 16.186-6.766 20.97-4.51 4.785-11.114 7.177-19.811 7.177-8.573 0-15.152-2.405-19.737-7.214-4.56-4.81-6.84-11.812-6.84-21.008 0-9.096 2.267-16.036 6.803-20.821 4.56-4.809 11.176-7.214 19.849-7.214 8.697 0 15.288 2.38 19.774 7.14 4.485 4.759 6.728 11.749 6.728 20.97zm-37.604 0c0 10.566 3.675 15.849 11.027 15.849 3.738 0 6.504-1.283 8.298-3.85 1.819-2.567 2.729-6.566 2.729-11.999 0-5.458-.922-9.482-2.766-12.074-1.819-2.616-4.548-3.925-8.186-3.925-7.402 0-11.102 5.333-11.102 15.999zm49.769-27.25h19.064c7.426 0 12.934 1.109 16.522 3.327 3.614 2.193 5.42 5.619 5.42 10.279 0 3.065-.785 5.682-2.355 7.85-1.57 2.168-3.638 3.564-6.205 4.187v.373c3.389.898 5.844 2.393 7.364 4.486 1.52 2.093 2.28 4.81 2.28 8.149 0 4.959-1.869 8.871-5.607 11.737-3.713 2.841-8.784 4.262-15.213 4.262h-21.27v-54.65zm14.765 20.97h4.449c2.118 0 3.75-.436 4.896-1.308 1.172-.872 1.757-2.168 1.757-3.888 0-3.065-2.317-4.598-6.952-4.598h-4.15v9.794zm0 10.803v11.476h5.196c4.61 0 6.916-1.944 6.916-5.832 0-1.819-.623-3.214-1.869-4.186-1.222-.972-3.003-1.458-5.346-1.458h-4.897zm90.253-4.523c0 9.195-2.256 16.186-6.766 20.97-4.511 4.785-11.115 7.177-19.812 7.177-8.572 0-15.151-2.405-19.736-7.214-4.561-4.81-6.841-11.812-6.841-21.008 0-9.096 2.268-16.036 6.803-20.821 4.561-4.809 11.177-7.214 19.849-7.214 8.697 0 15.289 2.38 19.774 7.14 4.486 4.759 6.729 11.749 6.729 20.97zm-37.605 0c0 10.566 3.676 15.849 11.027 15.849 3.738 0 6.504-1.283 8.299-3.85 1.819-2.567 2.728-6.566 2.728-11.999 0-5.458-.922-9.482-2.766-12.074-1.819-2.616-4.548-3.925-8.186-3.925-7.401 0-11.102 5.333-11.102 15.999zm49.77-27.25h13.157v23.475c0 2.492-.199 7.476-.598 14.952h.299l21.793-38.427h18.242v54.65h-13.084V346.12c0-3.464.225-8.647.673-15.55h-.299l-21.979 38.427h-18.204v-54.65zm26.315-4.374c-5.956 0-10.416-1.158-13.382-3.476-2.94-2.318-4.585-5.906-4.934-10.766h12.186c.124 2.443.66 4.212 1.607 5.308.947 1.097 2.455 1.645 4.523 1.645 3.738 0 5.782-2.317 6.131-6.953h12.372c-1.021 9.495-7.189 14.242-18.503 14.242zm112.136 59.024h-17.082l-10.654-17.083-10.541 17.083h-16.709l18.129-27.961-17.045-26.689h16.373l9.868 16.896 9.495-16.896h16.858l-17.307 27.848 18.615 26.802zm59.601-27.4c0 9.195-2.256 16.186-6.766 20.97-4.511 4.785-11.114 7.177-19.812 7.177-8.572 0-15.151-2.405-19.736-7.214-4.561-4.81-6.841-11.812-6.841-21.008 0-9.096 2.268-16.036 6.803-20.821 4.561-4.809 11.177-7.214 19.849-7.214 8.697 0 15.289 2.38 19.774 7.14 4.486 4.759 6.729 11.749 6.729 20.97zm-37.605 0c0 10.566 3.676 15.849 11.027 15.849 3.738 0 6.505-1.283 8.299-3.85 1.819-2.567 2.729-6.566 2.729-11.999 0-5.458-.922-9.482-2.767-12.074-1.819-2.616-4.547-3.925-8.186-3.925-7.401 0-11.102 5.333-11.102 15.999zm97.542 27.4h-16.709l-16.223-27.699v27.699h-14.84v-54.65h14.84v26.465l15.625-26.465h16.223l-16.859 26.091 17.943 28.559zm55.675 0h-16.709l-16.223-27.699v27.699h-14.84v-54.65h14.84v26.465l15.625-26.465h16.223l-16.858 26.091 17.942 28.559zm40.35 0h-32.446v-54.65h32.446v11.849h-17.681v8.598h16.372v11.849h-16.372v10.317h17.681v12.037zm11.866-54.65h13.158v23.475c0 2.492-.2 7.476-.598 14.952h.299l21.792-38.427h18.242v54.65h-13.083V346.12c0-3.464.224-8.647.673-15.55h-.3l-21.979 38.427h-18.204v-54.65zm26.315-4.374c-5.955 0-10.416-1.158-13.382-3.476-2.94-2.318-4.585-5.906-4.934-10.766h12.186c.125 2.443.66 4.212 1.607 5.308.947 1.097 2.455 1.645 4.523 1.645 3.738 0 5.782-2.317 6.131-6.953h12.373c-1.022 9.495-7.19 14.242-18.504 14.242zM322 224.25h13.158v23.474c0 2.492-.2 7.476-.598 14.953h.299l21.792-38.427h18.242v54.65H361.81v-22.877c0-3.464.224-8.647.673-15.55h-.299l-21.98 38.427H322v-54.65zm106.438 12.784c0 7.202-4.286 11.538-12.859 13.008v.299c4.934.424 8.66 1.744 11.177 3.962 2.517 2.218 3.775 5.209 3.775 8.972 0 3.289-.922 6.18-2.766 8.672-1.819 2.467-4.461 4.373-7.925 5.719-3.464 1.321-7.563 1.981-12.298 1.981-8.697 0-15.637-.984-20.82-2.953v-12.709c2.118 1.071 4.809 1.944 8.074 2.616 3.289.648 6.267.972 8.934.972 4.211 0 7.201-.436 8.971-1.308 1.769-.872 2.654-2.33 2.654-4.373 0-3.664-4.187-5.495-12.56-5.495h-6.429v-11.962h5.756c2.891 0 5.146-.137 6.766-.411 1.645-.299 2.841-.773 3.588-1.421.748-.648 1.122-1.619 1.122-2.915 0-2.741-2.629-4.112-7.887-4.112-4.959 0-9.32 1.271-13.083 3.813l-6.205-10.168c3.264-2.093 6.578-3.576 9.943-4.448 3.364-.872 7.426-1.308 12.186-1.308 6.005 0 10.815 1.246 14.428 3.738 3.639 2.492 5.458 5.769 5.458 9.831zm37.696 41.866l-11.177-39.362h-.337c.524 6.704.785 11.912.785 15.625V278.9h-13.083v-54.65h19.662l11.401 38.8h.299l11.177-38.8h19.699v54.65h-13.569v-23.961c0-1.246.013-2.629.038-4.149.05-1.52.224-5.246.523-11.177h-.336L480.188 278.9h-14.054zm84.944 0h-32.446v-54.65h32.446v11.849h-17.681v8.598h16.372v11.849h-16.372v10.317h17.681V278.9zm58.703 0h-14.84v-22.279h-17.157V278.9h-14.84v-54.65h14.84v20.26h17.157v-20.26h14.84v54.65zm14.146-54.65h13.158v23.474c0 2.492-.199 7.476-.598 14.953h.299l21.793-38.427h18.241v54.65h-13.083v-22.877c0-3.464.224-8.647.673-15.55h-.299l-21.98 38.427h-18.204v-54.65zm67.039 0h19.064c7.426 0 12.934 1.109 16.522 3.327 3.614 2.193 5.42 5.619 5.42 10.279 0 3.065-.785 5.682-2.355 7.85-1.57 2.168-3.638 3.564-6.205 4.187v.373c3.389.897 5.844 2.393 7.364 4.486 1.52 2.093 2.28 4.81 2.28 8.149 0 4.959-1.869 8.871-5.607 11.737-3.713 2.841-8.784 4.262-15.213 4.262h-21.27v-54.65zm14.765 20.97h4.449c2.118 0 3.75-.436 4.897-1.308 1.171-.873 1.756-2.168 1.756-3.888 0-3.065-2.317-4.598-6.952-4.598h-4.15v9.794zm0 10.803v11.476h5.196c4.611 0 6.916-1.944 6.916-5.832 0-1.819-.623-3.214-1.869-4.186-1.221-.972-3.003-1.458-5.346-1.458h-4.897zM816.356 278.9h-71.508v-54.65h14.84v42.538h13.643V224.25h14.541v42.538h13.607V224.25h14.877v54.65zm14.071-54.65h13.158v23.474c0 2.492-.199 7.476-.598 14.953h.299l21.793-38.427h18.241v54.65h-13.083v-22.877c0-3.464.225-8.647.673-15.55h-.299l-21.98 38.427h-18.204v-54.65zm99.485 54.65h-32.446v-54.65h32.446v11.849h-17.68v8.598h16.372v11.849h-16.372v10.317h17.68V278.9z" fill="#EDEDED"/><path d="M2.96 1.332h-1v194.962h65.857l.288-.504L144.76 61.777c-1.489 23.27-2.234 40.854-2.234 52.742v81.775h48.194V1.332h-65.991l-.287.506-76.019 134.044c1.33-25.183 1.997-42.08 1.997-50.664V1.332H2.961zm366.393 1v-1H238.668v194.962h54.398V45.435h76.287V2.332zm86.828 193.962h1v-64.013h13.651c23.565 0 41.879-5.893 54.792-17.819l-.679-.735.679.735c13.011-12.024 19.459-28.993 19.459-50.757 0-19.845-6.195-35.281-18.689-46.157-12.485-10.869-31.065-16.216-55.562-16.216h-67.785v194.962h53.134zm27.427-114.839l-.007.007c-4.348 4.18-10.28 6.32-17.917 6.32h-8.503V45.435h12.463c7.085 0 12.212 1.6 15.564 4.626 3.333 3.007 5.081 7.579 5.081 13.908 0 7.53-2.259 13.314-6.681 17.486zm216.63 98.127v-.001c14.357-11.306 21.499-27.455 21.499-48.3 0-20.154-7.197-35.482-21.664-45.818-14.32-10.38-35.064-15.499-62.09-15.499h-1.64V1.332h-54.398v194.962h58.017c25.908 0 46.045-5.525 60.276-16.712zm90.583 16.712h1V1.332h-54.53v194.962h53.53zm-153.366-42.256h-1.112v-42.611h.848c10.207 0 17.683 1.816 22.584 5.293 4.839 3.433 7.3 8.579 7.3 15.617 0 7.319-2.452 12.665-7.25 16.223-4.855 3.599-12.258 5.478-22.37 5.478z" stroke="#EDEDED" stroke-width="2"/></svg>