<svg width="177" height="131" viewBox="0 0 177 131" fill="none" xmlns="http://www.w3.org/2000/svg"><path d="M106.07 69.152H68.544v39.294c.002.705.04 1.41.117 2.111.099 1.082.36 2.143.774 3.147.979 2.243 2.739 3.333 5.026 3.788a17.63 17.63 0 003.424.29h3.554c.773-.003 1.544.075 2.3.235l.206.055c.572.13 1.124.334 1.644.607l.267.132a5.955 5.955 0 012.492 2.76l.233.545.24-.545c1.13-2.54 3.424-3.823 6.909-3.823h3.554c5.054 0 8.573-1.304 9.231-7.225.076-.702.115-1.407.116-2.112V69.152h-2.568.007zm1.089 14.685v24.526a17.88 17.88 0 01-.13 2.194c-.617 4.831-3.424 5.866-7.95 5.866h-3.513c-2.835 0-5.027.807-6.526 2.408l-.534.566-.534-.566c-1.5-1.601-3.691-2.408-6.526-2.408h-3.52c-4.5 0-7.327-1.028-7.944-5.866a17.763 17.763 0 01-.13-2.194V70.595h37.307v13.242z" fill="#D73B3B"/><path d="M88.437 80.476c-.041-.145-.199-.207-.22-.366a3.274 3.274 0 00-.465-1.325c-.22-.255-.383-.138-.774-.131a1.666 1.666 0 01-.808-.173c-.5-.331-1.15-.296-1.883.69-.116.166-.308.214-.384.4a5.42 5.42 0 00-.3 1.243c-.09.724 0 .862-.056 1.076a5.44 5.44 0 00-2.287.235c-2.273 1.69-3.608 4.761-3.252 5.065.144.187.238.408.273.642.192.738.309 1.904.411 2.567 0 0-.554.124-.445.47.09.225.167.455.233.69-.019.156-.05.31-.096.462.07.402.206.79.404 1.145.124.207.308.159.336.262.774 2.76 2.219 2.76 2.219 2.76l.034 1.077c-.617.808-1.644 2.347-1.37 2.63.274.282.39.324.363.496-.1.172-.244.313-.418.407a.501.501 0 00.137.739 3.02 3.02 0 001.15.103L81 107.002l-.164 3.575-.062 1.38c0 .138-.082.428-.335.193a8.77 8.77 0 01-1.11-1.38 1.179 1.179 0 00-.17-.207c-.158-.159-.261-.124-.31 0-.02.063-.036.128-.047.193a3.812 3.812 0 00.096 1.505c.385.652.99 1.142 1.705 1.38.685.248.685-.18.74-1.38 0-.166.034-.787.075-1.657.04-.869.102-2.166.178-3.574.082-1.725.185-3.658.28-5.472a2.14 2.14 0 00.26-.083 6.566 6.566 0 002.137-2.257c.24.69.226 2.222.541 2.609.432.517.596.338.98 1.38.088.248.979.566 1.37 1.221a9.773 9.773 0 003.019 2.623c.529.338 1.08.64 1.65.904.308.124.685-.201.829.234.226.628.301.566.61.69.307.124.307.959.807 1.332.5.373 1.069.186 1.534.387l.069.041c.438.235.917.835 1 .787.082-.049-.138-.394-.33-.787a5.207 5.207 0 01-.184-.4 1.23 1.23 0 010-.69c.205-1.167-.856-1.898-1.37-2.471a1.138 1.138 0 01-.226-.331c-.37-1.028-.561-.456-.897-.939-.897-1.318-1.616-2.76-2.739-3.616-.253-.193-.534-.172-.61-.262a8.643 8.643 0 00-.602-1.256c-.103-.159.192-.745-.048-1.104a1.388 1.388 0 01-.24-.814c0-1.298.137-.49.432.124.344.808.76 1.582 1.246 2.312.164.158.452-.055.575.152a7.705 7.705 0 002 2.256c.199.159.308.787.966 1.725.437.62.92 1.206 1.444 1.753a8.05 8.05 0 011.685 2.105c.404 1.063.774.793 1.143 1.332a.99.99 0 00.103.138c.35.49.774.924 1.137.966.363.041.555-.131.863-.083.308.048 1.26.773 1.328.732.069-.042-.623-1.056-.589-1.319.012-.1.032-.199.062-.296.092-.257.104-.537.034-.801-.212-.545-.945-.724-1.767-1.546-.41-.42-.3-.8-.445-1.186a.102.102 0 000-.042c-.5-1.311-.883-2.974-2.006-4.582-.39-.559-.685-.69-.746-1.187a8.253 8.253 0 00-.74-2.201c-.062-.345.404-.85.24-1.173a30.508 30.508 0 01-2.192-5.638c-.198-.69-1.321-1.146-1.321-1.746 0-.6-.91-.939-.904-1.015a7.485 7.485 0 00.15-1.587 5.057 5.057 0 00-.116-1c-.26-1.174-1.67-2.32-3.841-3.865.19-.856.277-1.732.26-2.608zm-6.759 11.207c-.11-.18-.069-.76-.123-.863-.055-.104-.178-.152-.178-.29.028-.565.092-1.127.191-1.684.041 1.022 1.281 4.61 1.281 4.61s-1.068-1.608-1.171-1.773zm3.617-72.863c.445-3.554 0-11.172 0-11.172v-.359H39.846v24.567H56.33V20.504h12.483c-1.958 22.083-17.441 40.35-20.084 63.336h16.195V65.51h5.08c4.822-15.044 12.683-25.85 15.292-46.69zm32.248 28.742v21c0 .57-.226 1.118-.626 1.522-.401.403-.944.63-1.511.63h-3.129v13.112h6.978a14.717 14.717 0 0010.444-4.364 14.95 14.95 0 004.326-10.528V47.252a15.15 15.15 0 00-4.384-10.663 14.917 14.917 0 00-10.578-4.423h-13.1V20.504h28.117V7.29H89.467v38.12h25.925a2.123 2.123 0 011.52.626 2.165 2.165 0 01.631 1.527z" fill="#D73B3B"/><path d="M37.847 82.764l4.608-4.727a2.187 2.187 0 00.456-2.377 2.177 2.177 0 00-.801-.973 2.152 2.152 0 00-1.202-.363H12.51l5.65 9.661-5.65 9.503h19.86v10.834c0 .714.281 1.398.782 1.903.5.505 1.18.788 1.888.788h29.918V87.857H39.963a2.955 2.955 0 01-1.644-.503 2.99 2.99 0 01-1.092-1.335 3.016 3.016 0 01.62-3.255zm.397 20.219H36.32v-9.737h-.856v-.952l.856-.766h1.924v11.455zm17.695-10.35l1.28-1.126h4.424l1.027 1.104v1.87h-1.924v-1.276h-2.883v2.76h3.526l1.281 1.125v4.927l-1.28.966h-4.17l-1.309-1.145.028-9.206zm-8.012-1.126h1.91v5.838h2.404v-5.838h1.924v5.838h.685v1.719h-.685v3.899h-1.924v-3.9h-3.02l-1.294-1.124v-6.432zm-2.74 0l1.281 1.146v9.185l-1.28 1.125h-4.424l-1.027-1.105v-1.87h1.924v1.277h2.883v-2.843h-3.527l-1.28-1.125v-4.83l1.28-.953 4.17-.007zm82.301 1.737h-2.89v8.026h2.89v-8.026z" fill="#D73B3B"/><path d="M159.024 83.978l5.649-9.662h-28.397a2.15 2.15 0 00-1.202.363 2.177 2.177 0 00-.801.974 2.19 2.19 0 00.455 2.377l4.609 4.726a3.011 3.011 0 01-.477 4.593c-.488.326-1.061.5-1.646.5h-24.953v19.129h29.931c.709 0 1.388-.284 1.889-.788.5-.505.782-1.19.782-1.903v-10.8h19.824l-5.663-9.51zM121.32 97.296l-1.28 1.125h-3.534v2.843h2.89v-1.001h1.924v2.719h-6.738v-5.134l1.287-1.145h3.527v-3.45h-2.89v1.69h-1.924v-2.284l1.287-1.125h4.171l1.28 1.145v4.617zm8.081 4.562l-1.281 1.124h-4.17l-1.281-1.124v-9.185l1.281-1.146h4.17l1.281 1.146v9.185zm8.087-4.562l-1.281 1.125h-3.526v2.843h2.889v-1.001h1.918v2.719h-6.732v-5.134l1.281-1.145h3.533v-3.45h-2.889v1.69h-1.925v-2.284l1.281-1.125h4.17l1.281 1.145v4.617zm4.108 5.686h-1.917v-9.737h-.911v-.952l.856-.766h1.918l.054 11.455zm-80.852-5.291h-2.883v3.575h2.883v-3.575zm45.213-40.613v-.351H89.474v8.784h16.483V57.08z" fill="#D73B3B"/><path d="M167.009 83.942l9.676-16.528h-35.814V47.25a22.075 22.075 0 00-3.34-11.723 21.842 21.842 0 00-9.033-8.117h12.449V.373H32.985v38.39h24.09c-1.369 3.491-2.896 7.01-4.464 10.606a190.802 190.802 0 00-7.533 19.08 8.962 8.962 0 00-4.197-1.035H.479l9.676 16.528-9.758 16.444h25.076v3.92a9.655 9.655 0 002.796 6.788 9.51 9.51 0 006.736 2.818h27.22c1.37 5.486 5.3 10.869 15.668 10.869h3.554c.245-.005.49.012.732.048l.98 2.243a5.962 5.962 0 002.187 2.596 5.9 5.9 0 006.479 0 5.962 5.962 0 002.187-2.596l.986-2.25c.248-.036.497-.052.747-.048h3.547c10.367 0 14.325-5.383 15.668-10.869h27.233a9.504 9.504 0 006.734-2.818 9.646 9.646 0 002.791-6.788v-3.913h25.084l-9.793-16.444zm-18.612 13.111v7.26a6.299 6.299 0 01-1.823 4.429 6.204 6.204 0 01-4.395 1.837h-30.02c-1.014 10.862-9.847 10.869-12.867 10.869h-3.547c-2.87 0-3.376 1.131-3.616 1.676l-1.143 2.616a2.598 2.598 0 01-.963 1.152c-.426.28-.925.426-1.434.421a2.558 2.558 0 01-1.437-.423 2.59 2.59 0 01-.96-1.157l-1.157-2.643c-.212-.483-.726-1.642-3.588-1.642h-3.554c-3.027 0-11.854 0-12.867-10.869h-30.02a6.204 6.204 0 01-4.395-1.837 6.3 6.3 0 01-1.824-4.429v-7.28H6.245l7.785-13.078L6.3 70.748h34.608a5.666 5.666 0 013.163.96 5.732 5.732 0 012.103 2.567c.185.442.316.906.39 1.38 2.054-8.84 5.615-17.004 9.08-24.96 3.924-8.971 7.65-17.535 9.142-26.624h-4.91v11.352H36.3V3.68h101.313v20.364h-28.117v4.575h9.587a18.42 18.42 0 0113.074 5.457 18.707 18.707 0 015.415 13.175v21.703c0 .608-.028 1.208-.082 1.801h33.41l-7.731 13.208 7.786 13.07-22.557.021z" fill="#D73B3B"/><path d="M44.564 93.244H41.68v3.464h2.883v-3.464z" fill="#D73B3B"/></svg>0493 84.2969C37.1597 83.7179 37.4371 83.1847 37.8469 82.7639ZM38.244 102.983H36.3198V93.2463H35.4639V92.294L36.3198 91.5279H38.244V102.983ZM55.9386 92.6321L57.2191 91.5073H61.6428L62.67 92.6114V94.4815H60.7458V93.2049H57.8628V95.9652H61.3894L62.67 97.09V102.017L61.3894 102.983H57.2191L55.9112 101.838L55.9386 92.6321ZM47.9268 91.5073H49.8373V97.3454H52.2409V91.5073H54.1651V97.3454H54.8498V99.0636H54.1651V102.963H52.2409V99.0636H49.221L47.9268 97.9388V91.5073ZM45.1877 91.5073L46.4682 92.6528V101.838L45.1877 102.963H40.764L39.7368 101.858V99.9883H41.6611V101.265H44.544V98.4219H41.0174L39.7368 97.297V92.4665L41.0174 91.5142L45.1877 91.5073Z" fill="#D73B3B"/>
<path d="M127.488 93.2441H124.598V101.27H127.488V93.2441Z" fill="#D73B3B"/>
<path d="M159.024 83.9775L164.673 74.3164H136.276C135.848 74.3149 135.43 74.441 135.074 74.6788C134.717 74.9166 134.439 75.2554 134.273 75.6525C134.108 76.0497 134.062 76.4873 134.143 76.9103C134.224 77.3332 134.428 77.7225 134.728 78.0291L139.337 82.7561C139.747 83.1773 140.024 83.7112 140.135 84.2907C140.245 84.8703 140.182 85.4698 139.956 86.0138C139.729 86.5579 139.348 87.0223 138.86 87.3488C138.372 87.6753 137.799 87.8493 137.214 87.8489H112.261V106.978H142.192C142.901 106.978 143.58 106.694 144.081 106.19C144.581 105.685 144.863 105 144.863 104.287V93.4869H164.687L159.024 83.9775ZM121.32 97.2961L120.04 98.4209H116.506V101.264H119.396V100.263H121.32V102.982H114.582V97.8482L115.869 96.7026H119.396V93.2522H116.506V94.9429H114.582V92.6588L115.869 91.5339H120.04L121.32 92.6795V97.2961ZM129.401 101.858L128.12 102.982H123.95L122.669 101.858V92.6726L123.95 91.527H128.12L129.401 92.6726V101.858ZM137.488 97.2961L136.207 98.4209H132.681V101.264H135.57V100.263H137.488V102.982H130.756V97.8482L132.037 96.7026H135.57V93.2522H132.681V94.9429H130.756V92.6588L132.037 91.5339H136.207L137.488 92.6795V97.2961ZM141.596 102.982H139.679V93.2453H138.768V92.293L139.624 91.527H141.542L141.596 102.982Z" fill="#D73B3B"/>
<path d="M60.7444 97.6914H57.8615V101.266H60.7444V97.6914Z" fill="#D73B3B"/>
<path d="M105.957 57.0785V56.7266H105.6H89.8232H89.474V57.0785V65.5113H105.957V57.0785Z" fill="#D73B3B"/>
<path d="M167.009 83.9417L176.685 67.4143H140.871V47.2502C140.879 43.103 139.721 39.0384 137.531 35.5272C135.341 32.016 132.209 29.2017 128.498 27.4104H140.947V0.373047H32.9851V38.7622H57.0755C55.706 42.254 54.1789 45.7734 52.6108 49.3687C49.7603 55.5874 47.2458 61.957 45.0782 68.4494C43.7829 67.7666 42.3423 67.4114 40.8806 67.4143H0.478807L10.1547 83.9417L0.396637 100.386H25.4731V104.306C25.4767 106.853 26.4822 109.294 28.269 111.094C30.0558 112.895 32.4782 113.908 35.0052 113.912H62.225C63.5945 119.398 67.5252 124.781 77.8927 124.781H81.4466C81.6918 124.776 81.9369 124.793 82.1794 124.829L83.1586 127.072C83.6224 128.133 84.3824 129.035 85.3459 129.668C86.3095 130.301 87.4351 130.638 88.5855 130.638C89.7358 130.638 90.8614 130.301 91.825 129.668C92.7885 129.035 93.5485 128.133 94.0123 127.072L94.9983 124.822C95.2455 124.786 95.4951 124.77 95.7448 124.774H99.2919C109.659 124.774 113.617 119.391 114.96 113.905H142.193C144.719 113.901 147.141 112.888 148.927 111.087C150.713 109.286 151.717 106.845 151.718 104.299V100.386H176.802L167.009 83.9417ZM148.397 97.0532V104.313C148.395 105.974 147.74 107.567 146.574 108.742C145.408 109.916 143.828 110.577 142.179 110.579H112.159C111.145 121.441 102.312 121.448 99.2919 121.448H95.7448C92.8756 121.448 92.3688 122.579 92.1292 123.124L90.9856 125.74C90.7844 126.211 90.4497 126.612 90.0232 126.892C89.5968 127.172 89.0978 127.318 88.5888 127.313C88.079 127.319 87.579 127.171 87.1523 126.89C86.7257 126.609 86.3915 126.206 86.1921 125.733L85.0349 123.09C84.8226 122.607 84.309 121.448 81.4466 121.448H77.8927C74.866 121.448 66.0392 121.448 65.0257 110.579H35.0052C33.3567 110.577 31.7762 109.916 30.6106 108.742C29.4449 107.567 28.7893 105.974 28.7874 104.313V97.0326H6.2446L14.0305 83.9555L6.2994 70.7474H40.908C42.0332 70.7455 43.1337 71.0793 44.0708 71.7069C45.008 72.3345 45.7398 73.2276 46.1739 74.2737C46.3587 74.7162 46.4897 75.1796 46.5642 75.6538C48.6185 66.8139 52.1793 58.6503 55.6443 50.6937C59.5681 41.7226 63.2933 33.1587 64.7861 24.0704H59.8762V35.4222H36.2994V3.67851H137.612V24.0428H109.495V28.618H119.082C123.985 28.618 128.688 30.5811 132.156 34.0753C135.623 37.5695 137.571 42.3086 137.571 47.2502V68.9532C137.571 69.5605 137.543 70.1608 137.489 70.7543H170.899L163.168 83.9624L170.954 97.0326L148.397 97.0532Z" fill="#D73B3B"/>
<path d="M44.5639 93.2441H41.681V96.7084H44.5639V93.2441Z" fill="#D73B3B"/>
</svg>
