<svg width="131" height="134" viewBox="0 0 131 134" fill="none" xmlns="http://www.w3.org/2000/svg"><path d="M110.384 54.483v-20.63a107.92 107.92 0 00-3.307-1.36v7.909c-.909 1.486-1.823 2.987-2.737 4.498V31.455c-1.187-.43-2.373-.84-3.569-1.23v20.63a110.4 110.4 0 013.433 1.182c.962-1.65 1.92-3.286 2.878-4.913v5.999c1.109.434 2.213.888 3.307 1.36h-.005zm-92.018 7.455c.627-.816 1.26-1.621 1.887-2.422V46.39c-1.163.82-2.315 1.66-3.462 2.523V59.11a104.19 104.19 0 00-3.03 1.525V35.228a110.825 110.825 0 013.03-1.525v4.237c1.147-.86 2.3-1.704 3.462-2.524v-5.313c-.637-.246-1.274-.483-1.907-.714a113.633 113.633 0 00-7.96 4.097v30.99c.613.179 1.23.358 1.848.546a109.872 109.872 0 016.127-3.08l.005-.004zm24.808-14.32v-20.63a112.21 112.21 0 00-9.885 2.5v20.63c1.201-.362 2.412-.705 3.623-1.028V32.036a97.288 97.288 0 012.601-.656v17.054c1.216-.295 2.436-.565 3.661-.816zM27.892 43.37v4.971c-.846.304-1.692.618-2.534.941V46.57l-3.52 2.5v3.624c.642.251 1.284.512 1.925.777a67.01 67.01 0 011.377-.521c1.448-.57 2.907-1.105 4.37-1.612.652-.753 1.304-1.496 1.96-2.234-.004-6.346-.014-12.692-.019-19.038-1.196.387-2.392.787-3.579 1.212v8.527c-.846.304-1.692.617-2.533.94V32.22c-1.182.453-2.354.931-3.52 1.423v10.525c.627.256 1.259.512 1.89.777a111.984 111.984 0 014.183-1.573zM59.4 42.138a208.624 208.624 0 016.4-4.67V26.333a178.32 178.32 0 00-1.756-1.63c-2.79.043-5.582.192-8.363.443v20.63c1.24-.111 2.48-.203 3.724-.275v-3.364H59.4zm0-13.685a144.53 144.53 0 012.626-.12v7.942a192.47 192.47 0 00-2.626 2.037v-9.86zm30.085-1.263v20.63c1.22.26 2.44.545 3.656.849v-3.484a145.476 145.476 0 016.215-2.626V31.426a258.644 258.644 0 00-1.697-2.157 112.555 112.555 0 00-8.174-2.075v-.005zm6.214 13.034c-.85.405-1.702.82-2.558 1.245v-9.86c.856.213 1.707.44 2.558.672v7.943zm-41.934-11.31v-3.576a114.86 114.86 0 00-8.675 1.274v20.63c2.879-.54 5.772-.965 8.675-1.274v-3.576c-1.663.178-3.326.396-4.984.651v-4.946c1.23-.188 2.465-.357 3.7-.502.34-1.235.686-2.466 1.026-3.696-1.58.173-3.156.38-4.726.622v-4.946c1.658-.251 3.32-.468 4.984-.652v-.01zm34.013 1.497v-3.576a114.976 114.976 0 00-8.66-1.37v20.63c2.898.342 5.791.8 8.66 1.37V43.89a109.608 109.608 0 00-4.955-.868v-4.947c1.23.189 2.46.396 3.686.623.34-1.13.676-2.259 1.016-3.383a111.19 111.19 0 00-4.702-.815v-4.947c1.658.251 3.312.54 4.955.869v-.01zM75.539 45.736a172.73 172.73 0 012.057-1.395V38.02c-1.24.178-2.48.376-3.72.593v3.417a123.33 123.33 0 00-2.665-.16V28.398c.89.044 1.775.097 2.665.16v3.624c1.24-.217 2.485-.415 3.72-.594v-4.705a224.656 224.656 0 00-2.052-1.771 109.127 109.127 0 00-6.02-.357c-.68.502-1.361 1.013-2.042 1.525v17.464c.686.54 1.376 1.086 2.062 1.64 2.003.068 4.001.184 5.995.358v-.005zm36.24-15.483v20.519c.662.777 1.313 1.573 1.965 2.364-.652 2.693-1.308 5.39-1.965 8.098 1.104.492 2.198 1.004 3.292 1.534a11119.6 11119.6 0 011.532-6.114c.442.555.885 1.096 1.327 1.655v5.898c1.133.593 2.261 1.201 3.375 1.833V33.476a113.21 113.21 0 00-7.873-4.058c-.549.27-1.098.55-1.653.83v.005zm3.496 3.629c.89.434 1.775.883 2.655 1.341v18.43a251.628 251.628 0 00-2.655-3.224V33.882zM41.662 21.126c.306-.072.608-.14.914-.207v-.932a62.57 62.57 0 00-.914.208v-5.892c-.258.058-.52.12-.778.183-.438.405-.875.81-1.313 1.221l-.014.014v.705l.705-.174v4.276c-.302.072-.603.15-.9.227v.931l.9-.227c.467-.116.933-.227 1.4-.333zm2.932-.634c1.075-.217 2.15-.415 3.229-.603.224-.222.452-.44.676-.656v-5.738c-.224-.14-.443-.285-.666-.425h-.01c-1.08.179-2.154.377-3.229.594l-.67.68v3.007c.218.13.442.265.66.4h.01c.827-.159 1.658-.318 2.49-.468v1.8c-.608.106-1.22.222-1.829.343v-1.028c-.447.087-.89.178-1.337.27v1.414c.22.13.443.265.662.4h.01l.004.01zm.734-3.802v-2.225a98.97 98.97 0 011.756-.328v2.23c-.584.105-1.172.212-1.756.327v-.004zm15.979.84c-1.07.043-2.135.105-3.205.183v-1.868a149.84 149.84 0 012.519-.154c.228-.193.457-.386.686-.575v-2.938c-.224-.17-.448-.338-.671-.502 0 0-.01-.005-.01-.01-1.09.053-2.178.12-3.268.207-.228.198-.457.401-.68.599v1.4c.452-.04.904-.073 1.351-.107v-1.013c.618-.044 1.23-.087 1.848-.12v2.185c-.841.049-1.682.106-2.519.17-.228.197-.457.4-.68.598v3.16c1.54-.13 3.087-.231 4.634-.294v-.931l-.005.01zm12.277-.549c-.476-.034-.953-.067-1.43-.096v.733c-.592-.034-1.186-.062-1.774-.091v-1.868a109.9 109.9 0 012.524.135c.228-.164.457-.333.68-.497v-2.939l-.67-.579-.01-.01c-1.09-.072-2.179-.125-3.268-.164l-.686.522v1.404c.453.014.905.029 1.357.048v-1.013c.618.024 1.235.058 1.848.091v2.187a142.06 142.06 0 00-2.524-.121l-.685.521v3.16c1.546.044 3.092.122 4.633.237v-1.664l.005.004zm12.614 1.667c-.472-.092-.944-.179-1.415-.266v.734a73.95 73.95 0 00-1.756-.3V16.95c.832.135 1.663.28 2.495.434.223-.14.452-.275.676-.415V14.03l-.662-.662-.01-.01a90.65 90.65 0 00-3.238-.55l-.676.44v1.404c.448.068.895.135 1.347.208v-1.014c.613.097 1.22.203 1.828.314v2.186a87.06 87.06 0 00-2.499-.415l-.676.439v3.16c1.532.228 3.064.488 4.59.783v-1.665h-.004zm6.136 1.37a73.71 73.71 0 00-1.4-.347v.733c-.579-.14-1.162-.275-1.741-.405V18.13c.826.183 1.653.377 2.475.584l.671-.376v-2.94c-.219-.23-.438-.467-.656-.699l-.01-.01a105.985 105.985 0 00-3.205-.743c-.223.135-.447.266-.67.4v1.405c.447.092.89.188 1.332.29v-1.014c.608.135 1.21.275 1.813.42v2.186a107.39 107.39 0 00-2.475-.564c-.223.135-.447.265-.67.4v3.16c1.521.32 3.038.672 4.546 1.053v-1.665h-.01zm-40.699-6.599c.608-.082 1.22-.16 1.828-.227-.846 2.041-1.687 4.097-2.528 6.163-.01.019-.015.038-.024.058.49-.068.982-.136 1.468-.198.836-1.993 1.673-3.982 2.514-5.955v-1.158c-1.347.14-2.694.304-4.04.492-.19.217-.38.43-.57.646v1.38c.448-.067.895-.13 1.347-.188V13.42h.005zm15.156.731c-1.084-.01-2.168 0-3.252.02v1.003a104.68 104.68 0 013.252-.019V14.15zm9.21 4.699c1.09.101 2.174.222 3.258.357.228-.154.452-.304.68-.454v-5.737l-.67-.623-.01-.01A104.905 104.905 0 0076 12.026c-.229.16-.452.319-.68.483v5.738c.223.198.447.395.67.598l.01.01v-.005zm.744-5.82c.588.058 1.182.126 1.77.193v4.961a106.3 106.3 0 00-1.77-.193v-4.96zm11.621 54.774h-9.88v2.012h9.88v-2.012zm6.117 39.582H72.38l-.482-.381-3.53-2.818v1.52l4.629 3.696h20.87l4.624-3.696v-1.52l-3.525 2.818-.482.381z" fill="#3D3D3D"/><path d="M72.947 57.762l-4.58 3.653v40.536l4.629 3.696h20.87l4.624-3.696V61.42l-4.62-3.658H72.948zm17.17 39.58H76.735v-31.28h13.382v31.28zm-30.658 10.043h-22.11l-.476-.381-3.535-2.818v1.52l4.629 3.696h20.87l4.624-3.696v-1.52l-3.526 2.818-.476.381zm3.311-39.582H43.461v2.012h19.31v-2.012zm-9.428 19.74v-2.017H37.354l-.481-.382-3.535-2.818v1.525l4.634 3.692h15.37z" fill="#3D3D3D"/><path d="M41.706 75.482v-9.415h21.06v-8.305H33.337v22.333l4.634 3.692h17.12v13.56H41.706v-6.635h-8.368v11.239l4.629 3.696h20.87l4.624-3.696V79.183l-4.624-3.701H41.706zm-23.408-3.86l8.261 2.08v30.851l1.27.622V69.639l-9.531-2.461v4.444zm85.269.29v33.263l1.273-.622v-30.85l8.262-2.08v-4.445l-9.535 2.46v2.274zm-83.314-8.754a111.444 111.444 0 00-8.967 4.469l1.887.762c2.956-1.549 6.472-3.252 9.136-4.382l-2.056-.849zm89.338.872c2.407 1.077 6.973 3.306 9.321 4.56l1.868-.757a111.93 111.93 0 00-9.006-4.517l-2.183.715zm.535-7.78a112.25 112.25 0 00-87.855-.077l2.178.884a112.284 112.284 0 0183.503.077l2.179-.883h-.005zM98.665 15.012c-.86-.246-1.721-.482-2.582-.71v7.983c.866.226 1.726.463 2.582.709v-7.982z" fill="#3D3D3D"/><path d="M105.205 25.07c.846.294 1.692.603 2.533.916V18a116.738 116.738 0 00-9.073-2.992v7.986a119.15 119.15 0 016.54 2.075zm-1.984-3.253l.107.43s-1.079-.488-1.118-.507c-.068-.015-.097.034-.097.034.009.467.024.93.034 1.399l-.433-.135.058-1.356s-.019-.087-.092-.111a47.034 47.034 0 00-1.128-.208s.078-.241.102-.323c.029-.087-.029-.183-.029-.183-.418-.488-.841-.975-1.265-1.463 0 0 .214-.038.287-.057.078-.02.025-.198.025-.198l-.2-.835s.579.309.71.367c.131.062.136-.058.136-.058.03-.097.059-.198.088-.295.18.27.36.536.544.806 0 0 .083.16.171.15.073-.005.053-.17.053-.17-.083-.487-.165-.974-.243-1.461l.345.294c.161.14.219.014.219.014l.443-.743c.155.353.311.705.466 1.062 0 0 .073.116.195.087.102-.024.345-.077.345-.077-.078.43-.16.859-.238 1.293 0 0-.039.12.034.203.083.072.16-.01.16-.01l.56-.483c.029.121.058.242.092.357 0 0 .034.145.18.14l.666.082c-.073.247-.146.493-.214.739 0 0-.029.11.029.164l.292.256c-.404.212-.812.43-1.221.646 0 0-.092.03-.063.14v.01zm-73.968-3.764l-.097.357.272-.29.34.122-.121-.358.049-.058.223-.25-.282.091-.063.02-.024-.063-.102-.26-.127.405-.394.144c.088.034.17.073.258.111l.053.024.015.005z" fill="#3D3D3D"/><path d="M35.633 14.412a118.775 118.775 0 00-11.66 3.701v7.992a118.748 118.748 0 0111.66-3.701v-7.992zm-6.487 3.185l.297-.96.073.188c.039.106.082.212.121.319.034.086.068.168.098.255.228-.077.457-.15.68-.222l.239-.077-.17.188-.35.391-.22.241c.069.203.137.41.205.613l.043.135-.7-.25-.068.067c-.17.183-.345.362-.515.545l-.185.198.068-.265c.068-.251.131-.497.2-.748l-.7-.29.87-.328h.014zm2.47 4.59a.723.723 0 01-.345.467l-.034.02-.15-.097-.302-.188c-.671.545-1.459.642-2.344.28.02.043.024.087.01.13-.024.077-.102.135-.243.184-.297.665-.423.815-.496.863-.107.073-.185.107-.248.107h-.04c-.13-.03-.111-.218-.106-.29.01-.092.087-.28.632-.816-.039-.135-.034-.231.02-.294.043-.048.111-.072.204-.063a5.56 5.56 0 00.121-.24l.025-.05.053.015c.69.174 1.298.092 1.819-.241l-1.342-.956-.083-.057-.049.067-.345.459-.039.053-.053-.039c-.102-.077-.205-.15-.307-.227l-.116-.087.038-.053.89-1.23.015-.024h.024c.107-.024.22-.049.326-.068.112-.024.229-.043.34-.068l.166-.028-.093.135-.481.695c.52.318 1.036.641 1.556.965.267-.584.32-1.081.15-1.487-.184-.434-.627-.777-1.327-1.013l-.398-.135h.423c1.108.014 1.77.376 2.032 1.11.17.69.073 1.317-.296 1.877.121.082.238.16.354.241l.04.024v.059z" fill="#3D3D3D"/><path d="M129.342 26.09l-1.434-.84-.803-.472h-.009a122.316 122.316 0 00-10.284-5.28v-7.605l-2.082-.873-.714-.3C98.577 4.244 82.38.963 65.886.963c-16.493 0-32.69 3.281-48.133 9.758l-.715.299-2.08.873v7.605A121.578 121.578 0 003.86 25.251l-1.435.84-1.672.979v47.847l2.49.69 11.708 3.238v29.446l1.882.932 47.516 23.569 1.527.757 1.527-.762 47.526-23.791 1.872-.936V79.1l11.787-3.57L131 74.8V27.07l-1.668-.98h.01zm-66.509 98.541h-1.522v-5.781h-1.605v5.217l-.66.53v.034H57.64v-1.037h.545v-5.217l.705-.564h.024l3.914.009v6.809h.005zm5.582-5.781h-2.733v1.853h2.364v1.038h-2.364v1.848h2.733v1.042h-4.25v-6.818h.064l4.186.009v1.033-.005zm6.064 0h-1.634v5.776h-1.507v-5.776h-1.634v-1.037h4.775v1.037zm51.085-48.06l-13.323 4.035-1.167.352v29.365l-30.468 15.254-14.724-7.297-14.797 7.331-30.38-15.071V74.811l-2.334-.647-12.157-3.359V30.154l.428-.251c4.187-2.457 8.5-4.619 12.89-6.515v-.01c.39-.169.779-.342 1.168-.502v-7.204c29.17-12.012 61.204-12.012 90.369 0v7.2c.389.164.778.333 1.167.502v.01a117.614 117.614 0 0112.895 6.514l.428.25v40.643h.005z" fill="#3D3D3D"/></svg>.4589 107.385H58.8365H37.9667H37.3492L36.8726 107.004L33.3376 104.186V105.706L37.9667 109.402H58.8365L63.4607 105.706V104.186L59.9354 107.004L59.4589 107.385Z" fill="#3D3D3D"/>
<path d="M62.7702 67.8027H43.4612V69.8151H62.7702V67.8027Z" fill="#3D3D3D"/>
<path d="M53.3419 87.5428V85.5256H37.9716H37.354L36.8726 85.1444L33.3376 82.3262V83.8511L37.9716 87.5428H53.3419Z" fill="#3D3D3D"/>
<path d="M41.7059 75.4817V66.0668H62.7654V57.7617H37.9229H33.3376V80.0951L37.9716 83.7868H55.0924V97.347H41.7059V90.7116H33.3376V101.951L37.9667 105.647H58.8365L63.4607 101.951V79.183L58.8365 75.4817H41.7059Z" fill="#3D3D3D"/>
<path d="M18.298 71.6222L26.5594 73.7021V104.553L27.8285 105.175V74.0206V71.9117V69.6388L18.298 67.1777V71.6222Z" fill="#3D3D3D"/>
<path d="M103.567 71.9117V74.0206V105.175L104.84 104.553V73.7021L113.102 71.6222V67.1777L103.567 69.6388V71.9117Z" fill="#3D3D3D"/>
<path d="M20.2527 63.1582C17.2136 64.5046 14.2232 65.9957 11.2862 67.6268L13.1729 68.3893C16.1293 66.8402 19.6449 65.1367 22.3095 64.0075L20.2527 63.1582Z" fill="#3D3D3D"/>
<path d="M109.591 64.0306C111.998 65.1067 116.564 67.3362 118.912 68.5909L120.78 67.8333C117.833 66.1877 114.828 64.6773 111.774 63.3164L109.591 64.0306Z" fill="#3D3D3D"/>
<path d="M110.126 56.2507C82.084 44.2878 50.3271 44.2636 22.2706 56.1735L24.4489 57.0566C51.2364 46.3483 81.1796 46.3725 107.952 57.1338L110.131 56.2507H110.126Z" fill="#3D3D3D"/>
<path d="M98.665 15.0121C97.8044 14.766 96.9437 14.5295 96.083 14.3027V22.2845C96.9486 22.5113 97.8092 22.7477 98.665 22.9938V15.0121Z" fill="#3D3D3D"/>
<path d="M105.205 25.0694C106.051 25.3638 106.897 25.6726 107.738 25.9863V17.9998C106.897 17.6861 106.051 17.3772 105.205 17.0829C103.041 16.3252 100.863 15.6352 98.6651 15.0078V22.9944C100.858 23.6217 103.041 24.3118 105.205 25.0694ZM103.221 21.8169C103.25 21.9375 103.328 22.2464 103.328 22.2464C103.328 22.2464 102.249 21.759 102.21 21.7397C102.142 21.7252 102.113 21.7735 102.113 21.7735C102.122 22.2415 102.137 22.7048 102.147 23.1729L101.714 23.0378C101.733 22.5842 101.753 22.1354 101.772 21.6818C101.772 21.6818 101.753 21.5949 101.68 21.5708C101.626 21.5563 100.552 21.3584 100.552 21.3633C100.552 21.3633 100.63 21.122 100.654 21.0399C100.683 20.9531 100.625 20.8566 100.625 20.8566C100.207 20.3692 99.7835 19.8818 99.3604 19.3944C99.3604 19.3944 99.5744 19.3558 99.6473 19.3365C99.7251 19.3172 99.6716 19.1386 99.6716 19.1386C99.6036 18.8587 99.5403 18.5837 99.4723 18.3038C99.4723 18.3038 100.051 18.6126 100.182 18.6705C100.313 18.7333 100.318 18.6126 100.318 18.6126C100.348 18.5161 100.377 18.4148 100.406 18.3182C100.586 18.5885 100.766 18.8539 100.95 19.1241C100.95 19.1241 101.033 19.2834 101.121 19.2737C101.194 19.2689 101.174 19.1048 101.174 19.1048C101.091 18.6174 101.009 18.13 100.931 17.6426C100.931 17.6426 101.111 17.7971 101.276 17.937C101.437 18.077 101.495 17.9515 101.495 17.9515L101.938 17.2083C102.093 17.5606 102.249 17.9129 102.404 18.27C102.404 18.27 102.477 18.3858 102.599 18.3569C102.701 18.3327 102.944 18.2796 102.944 18.2796C102.866 18.7091 102.784 19.1386 102.706 19.5729C102.706 19.5729 102.667 19.6936 102.74 19.7756C102.823 19.848 102.9 19.766 102.9 19.766C103.085 19.6067 103.275 19.4426 103.46 19.2834C103.489 19.404 103.518 19.5247 103.552 19.6405C103.552 19.6405 103.586 19.7853 103.732 19.7804C103.737 19.7804 104.398 19.8625 104.398 19.8625C104.325 20.1086 104.252 20.3547 104.184 20.6008C104.184 20.6008 104.155 20.7118 104.213 20.7649C104.272 20.818 104.505 21.0206 104.505 21.0206C104.101 21.233 103.693 21.4501 103.284 21.6673C103.284 21.6673 103.192 21.6962 103.221 21.8072V21.8169Z" fill="#3D3D3D"/>
<path d="M29.253 18.0534L29.1558 18.4105L29.4281 18.1209L29.7685 18.2416L29.6469 17.8845L29.6955 17.8265C29.7685 17.7445 29.8463 17.6576 29.9192 17.5756C29.8268 17.6046 29.7296 17.6383 29.6372 17.6673L29.574 17.6866L29.5497 17.6239C29.5156 17.537 29.4816 17.4501 29.4475 17.3633L29.3211 17.7686L28.9273 17.9134C29.0148 17.9472 29.0974 17.9858 29.185 18.0244L29.2385 18.0485L29.253 18.0534Z" fill="#3D3D3D"/>
<path d="M35.6327 14.4121C31.699 15.44 27.809 16.6754 23.9725 18.1134V26.1048C27.809 24.6667 31.699 23.4314 35.6327 22.4035V14.4121ZM29.1462 17.5971L29.4428 16.6368L29.5157 16.825C29.5546 16.9311 29.5984 17.0373 29.6373 17.1435C29.6713 17.2303 29.7054 17.3124 29.7345 17.3992C29.9631 17.322 30.1916 17.2496 30.4153 17.1772L30.6536 17.1L30.4834 17.2882C30.3667 17.4185 30.25 17.5488 30.1333 17.6791L29.9145 17.9204C29.9825 18.1231 30.0506 18.3306 30.1187 18.5333L30.1624 18.6684L29.4622 18.4174L29.3942 18.485C29.224 18.6684 29.0489 18.8469 28.8788 19.0303L28.694 19.2282L28.7621 18.9627C28.8301 18.7118 28.8933 18.4657 28.9614 18.2148L28.2612 17.9252L29.1316 17.5971H29.1462ZM31.6163 22.1863C31.5677 22.389 31.451 22.5482 31.2711 22.6544L31.2371 22.6737L31.0863 22.5772C30.9842 22.5145 30.887 22.4517 30.7848 22.389C30.1138 22.9343 29.3261 23.0308 28.4411 22.6689C28.4606 22.7123 28.4654 22.7558 28.4509 22.7992C28.4265 22.8764 28.3487 22.9343 28.2077 22.9826C27.9111 23.6485 27.7847 23.7981 27.7118 23.8464C27.6048 23.9187 27.527 23.9525 27.4638 23.9525C27.4492 23.9525 27.4395 23.9525 27.4249 23.9525C27.2936 23.9236 27.313 23.7354 27.3179 23.663C27.3276 23.5713 27.4054 23.3831 27.95 22.8474C27.9111 22.7123 27.916 22.6158 27.9695 22.5531C28.0132 22.5048 28.0813 22.4807 28.1737 22.4903C28.2175 22.4083 28.2564 22.3311 28.2953 22.2491L28.3196 22.2008L28.3731 22.2153C29.0635 22.389 29.6713 22.307 30.1916 21.974C29.7443 21.6555 29.2969 21.337 28.8496 21.0185L28.7669 20.9606L28.7183 21.0282C28.6016 21.1826 28.4898 21.3322 28.3731 21.4866L28.3342 21.5397L28.2807 21.5011C28.1786 21.4239 28.0764 21.3515 27.9743 21.2743L27.8576 21.1874L27.8965 21.1343C28.1931 20.7241 28.4898 20.3139 28.7864 19.9038L28.801 19.8796H28.8253C28.9322 19.8555 29.0441 19.8314 29.1511 19.8121C29.2629 19.7879 29.3796 19.7686 29.4914 19.7445L29.6567 19.7156L29.5644 19.8507C29.4039 20.0823 29.2434 20.3139 29.083 20.5456C29.6033 20.8641 30.1187 21.1874 30.639 21.5107C30.9064 20.9268 30.9599 20.4298 30.7897 20.0244C30.6049 19.5901 30.1624 19.2475 29.4622 19.011L29.0635 18.8759H29.4866C30.5952 18.8904 31.2565 19.2523 31.5191 19.9858C31.6893 20.6759 31.592 21.3032 31.2225 21.863C31.344 21.945 31.4607 22.0222 31.5774 22.1043L31.6163 22.1284V22.1767V22.1863Z" fill="#3D3D3D"/>
<path d="M129.342 26.0903L127.908 25.2507L127.105 24.7777H127.096C123.818 22.8909 120.371 21.1199 116.812 19.4984V11.8931L114.73 11.0197L114.016 10.7205C98.5773 4.24437 82.3803 0.962891 65.8868 0.962891C49.3932 0.962891 33.1963 4.24437 17.753 10.7205L17.0382 11.0197L14.9571 11.8931V19.4984C11.1012 21.255 7.38135 23.1853 3.86091 25.2507L2.42648 26.0903L0.753784 27.07V74.9168L3.24338 75.6069L14.9522 78.845V108.291L16.834 109.223L64.3502 132.792L65.877 133.549L67.4039 132.787L114.93 108.996L116.802 108.06V79.1007L128.589 75.5297L131 74.801V27.07L129.332 26.0903H129.342ZM62.8331 124.631H61.3112V118.85H59.7065V124.067L59.0452 124.597V124.631H57.64V123.594H58.1846V118.377L58.8896 117.813H58.914L62.8283 117.822V124.631H62.8331ZM68.4153 118.85H65.6825V120.703H68.0457V121.741H65.6825V123.589H68.4153V124.631H64.1654V117.813H64.2287L68.4153 117.822V118.855V118.85ZM74.4788 118.85H72.845V124.626H71.3376V118.85H69.7038V117.813H74.4788V118.85ZM125.564 70.7908L112.241 74.8251L111.074 75.1774V104.542L80.6055 119.796L65.8819 112.499L51.0854 119.83L20.7046 104.759V74.8107L18.3706 74.164L6.21435 70.8053V30.1536L6.64225 29.9026C10.8289 27.4464 15.1419 25.2844 19.5327 23.3879V23.3783C19.9217 23.2094 20.3107 23.0357 20.6997 22.8764V15.6716C49.8697 3.66046 81.9038 3.66046 111.069 15.6716V22.8716C111.458 23.0357 111.847 23.2046 112.236 23.3735V23.3831C116.632 25.2796 120.94 27.4415 125.131 29.8978L125.559 30.1488V70.7908H125.564Z" fill="#3D3D3D"/>
</svg>
