<svg width="126" height="131" viewBox="0 0 126 131" fill="none" xmlns="http://www.w3.org/2000/svg"><path d="M103.954 56.008l.278-2.718a58.718 58.718 0 0018.869-7.713s4.168-6.409.53-13.658a56.863 56.863 0 01-19.797 15.612l-.05-.236a26.273 26.273 0 00-.524-2.826c.568-.343 11.543-7.05 15.938-15.273 0 0 1.51-8.58-5.052-13.645-2.399 9.336-8.013 17.234-13.261 22.968a13.788 13.788 0 00-1.951-2.616c-.954 3.92-3.543 8.274-8.058 11.838l-.088-.032a87.62 87.62 0 00-13.691-3.341 11.95 11.95 0 012.11-3.354s5.556-.732 5.683 1.527a2.053 2.053 0 00.555-2.043c2.324 1.4 6.15 1.91 7.168-1.813-1.686 3.054-6.315-1.203-10.319-1.49l.354-.337.43-.407h5.196l1.225 1.413 4.737-4.213-2.596-3.004h-4.938l2.526-2.482H73.883c-2.35 0-7.465-.058-7.073-2.877-1.724 3.411.417 5.69 3.915 6.059-.928 1.222-4.42 2.679-5.19 1.011-.159 2.336 2.216 2.629 2.216 2.629a45.342 45.342 0 00-4.856 7 44.841 44.841 0 00-4.856-7s2.38-.293 2.222-2.629c-.795 1.668-4.268.21-5.197-1.011 3.505-.37 5.646-2.648 3.922-6.059.385 2.82-4.73 2.877-7.08 2.877H36.544l2.526 2.482H34.1l-2.59 3.004 4.73 4.212 1.226-1.412h5.197l.436.407.347.337c-4.023.287-8.633 4.544-10.312 1.49 1.016 3.716 4.837 3.182 7.167 1.813a2.052 2.052 0 00.55 2.043c.151-2.26 5.683-1.527 5.683-1.527a11.894 11.894 0 012.11 3.36 86.767 86.767 0 00-13.635 3.31l-.082.031c-4.521-3.532-7.11-7.917-8.064-11.837a13.798 13.798 0 00-1.951 2.616c-5.223-5.728-10.83-13.632-13.262-22.969C5.063 20.617 6.598 29.17 6.598 29.17c4.42 8.235 15.37 14.943 15.938 15.274a25.886 25.886 0 00-.524 2.826l-.05.235A56.94 56.94 0 012.165 31.894c-3.632 7.249.536 13.657.536 13.657a58.65 58.65 0 0018.863 7.714l.284 2.717C8.7 54.576.213 49.618.213 49.618c-.228 2.128.108 4.28.974 6.234a12.073 12.073 0 003.958 4.89s9.334 1.808 17.985.198l.934 2.215a62.84 62.84 0 01-19.576 1.832c1.421 7.53 7.95 8.274 7.95 8.274a76.317 76.317 0 0014.247-5.817L28 69.074a80.333 80.333 0 01-14.903 7.98c2.62 4.85 8.638 4.296 8.638 4.296a70.804 70.804 0 009.473-9.146L32.74 73.3a88.923 88.923 0 01-9.56 11.296c3.959 2.743 8.948 1.426 8.948 1.426a88.838 88.838 0 004.496-10.437c1.093.54 2.227.994 3.39 1.355v8.516c-3.933.636-5.752 2.412-6.37 4.633l-.051.216-.063.267c-.032.178-.064.37-.089.56v.16c-.366 3.55 1.143 8.788-.94 9.068a2.285 2.285 0 001.653.226 2.304 2.304 0 001.371-.957 31.257 31.257 0 001.774 3.022 14.91 14.91 0 01-5.575 1.362c-2.527 0-4.699-.751-6.947-3.532-1.414-1.73-2.968-2.335-4.42-.038l-5.886-5.88a1.547 1.547 0 00-.379-1.095c3.448-3.678-.075-8.833-3.088-8.967-1.073-.051 1.093 3.596-.84 4.188-.915.28-1.698-1.445-.34-2.26a2.847 2.847 0 00-1.75.287 1.148 1.148 0 00-.411-1.263 1.125 1.125 0 00-1.319-.01l-.057-.064a1.478 1.478 0 00-1.046-.508 1.469 1.469 0 00-1.088.41 1.489 1.489 0 00-.457 1.077 1.5 1.5 0 00.457 1.077l.05.044a1.155 1.155 0 00.408 1.884c.237.092.498.1.742.026a2.889 2.889 0 00-.405 1.966c.809-1.374 2.526-.579 2.23.356-.594 1.942-4.206-.267-4.156.815.114 3.036 5.216 6.612 8.885 3.182.3.265.688.406 1.087.395l5.462 5.759c-.884.579-1.459 2.31.164 3.602-.82 2.82 1.39 5.544 8.778 5.766a2156.3 2156.3 0 005.355 5.633c.758.751 1.351.948 1.68.891.29-.053.557-.195.764-.408.222-.209.374-.482.435-.783a2.28 2.28 0 00-.858-1.711l-4.831-4.824c1.168-1.031 6.315-5.346 10.672-5.728-.632-2.845-.556-5.06-.063-6.613.07.274.17.503.259.758 1.389 4.194 4.736 5.384 9.264 5.479L38.98 115.022c-.17 1.776-.11 3.567.177 5.327a19.85 19.85 0 005.197.522l9.567-15.274s1.895.178 1.333 1.101l-8.16 16.019c.443 2.157 2.319 4.677 2.319 4.677a27.232 27.232 0 005.096-1.674l5.588-18.589 1.415.967-3.91 18.94a14.883 14.883 0 005.324 3.927 14.812 14.812 0 005.324-3.927l-3.915-18.94 1.42-.967 5.59 18.589a27.215 27.215 0 005.102 1.674s1.894-2.545 2.31-4.677l-8.164-16.019c-.537-.923 1.338-1.101 1.338-1.101l9.567 15.274a19.84 19.84 0 005.191-.522c.29-1.76.352-3.551.183-5.327l-11.095-11.131c4.856-.101 8.386-1.406 9.573-6.364.53 1.56.632 3.819 0 6.74a15.53 15.53 0 016.616 2.395 15.693 15.693 0 014.903 5.076c1.97 3.323 6.788 5.55 8.613 2.069 1.971.942 6.423-1.209 5.526-4.512a7.957 7.957 0 00-1.2-9.089 7.846 7.846 0 00-2.627-1.864l-1.225 2.259-1.958 3.602-1.957-3.602-1.232-2.26a7.908 7.908 0 00-3.29 2.724 7.993 7.993 0 00-1.408 4.048 63.366 63.366 0 00-7.363-2.507 29.08 29.08 0 001.66-2.934c.324.481.815.823 1.376.958.56.136 1.151.055 1.656-.226-2.084-.28-.581-5.518-.947-9.069v-.16c0-.19-.05-.38-.082-.56l-.07-.266-.044-.217c-.632-2.234-2.457-4.047-6.441-4.646v-8.528a22.69 22.69 0 003.385-1.355 90.657 90.657 0 004.49 10.437s5 1.317 8.96-1.425A89.044 89.044 0 0193.08 73.33l1.54-1.095a70.644 70.644 0 009.473 9.145s6.018.554 8.633-4.295a80.176 80.176 0 01-14.897-7.98l1.313-1.63a76.072 76.072 0 0014.253 5.817s6.523-.758 7.95-8.274a62.874 62.874 0 01-19.576-1.833l.935-2.214c8.658 1.61 17.991-.198 17.991-.198a12.082 12.082 0 003.958-4.89 12.188 12.188 0 00.974-6.234s-8.525 4.951-21.673 6.358zM85.01 30.997l-1.548 1.52-5.052-1.52h6.6zm-42.702 1.52l-1.547-1.52h6.6l-5.053 1.52zM6.124 88.568a1.16 1.16 0 00-.126-.923l.195-.153.095-.115c.235.157.517.223.796.185a.948.948 0 00.139 1.21.908.908 0 00-1.099-.204zm77.673 7.738a8.157 8.157 0 01-1.263 3.316l-.354.458c-.17.185-.353.363-.536.529-1.58 1.33-3.878 1.705-6.795 1.705h-4.004c-.93-.001-1.86.091-2.772.274a8.588 8.588 0 00-4.686 2.482l-.631.636-.632-.636a8.815 8.815 0 00-5.298-2.597 14.506 14.506 0 00-2.153-.159h-4.017c-4.174 0-7.091-.783-8.41-4.047-.077-.191-.134-.414-.203-.637V59.775a84.429 84.429 0 015.09-1.12 85.734 85.734 0 019.106-1.177 87.854 87.854 0 016.58-.248 85.879 85.879 0 0120.84 2.545h.087l.051 36.53zm9.535-35.098c-2.538.11-5.069.37-7.577.777v-3.22l-.152-.039c-.353-.095-.713-.172-1.067-.267l-.347-.083h-.127a87.592 87.592 0 00-27.899-2.348 87.055 87.055 0 00-9.257 1.196 87.858 87.858 0 00-5.431 1.197l-.67.172-.675.165h-.146v3.219a65.228 65.228 0 00-7.578-.776 17.496 17.496 0 000-10.991v-.057a74.632 74.632 0 013.038-1.063 85.952 85.952 0 0122.651-4.251c.455 0 .91-.064 1.358-.083h.246a89.446 89.446 0 013.196-.064h.372c1.023 0 2.046 0 3.07.057.36 0 .726.051 1.092.064.777.045 1.56.077 2.343.14h.176c1.08.083 2.167.191 3.246.318a82.61 82.61 0 013.41.471 85.72 85.72 0 0113.729 3.329c.663.223 1.32.458 1.977.694.353.12.707.235 1.054.369 0 .025-2.551 4.55 0 11.073h-.032z" fill="#3D3D3D"/><path d="M86.78 26.525c3.952 0 4.78-3.959 4.382-5.868a10.26 10.26 0 01-.278-1.846.71.71 0 01.227-.687c.632-.42 2.267-.267 3.884 1.063.985.808 1.768 1.98 1.326 2.807a4.64 4.64 0 01-1.433 1.387 4.812 4.812 0 00-1.693 1.75c-.574 1.235.701 5.257 4.01 6.409.575.19.088-1.222.632-2.018.631-.929 2.235-1.272 1.509-1.482-.474-.128-1.895-.84-2.02-1.706-.127-.866 1.161-1.91 2.07-2.61l.373-.299c1.08-.871 1.263-1.629 1.2-2.106-.063-.477-.316-1.07-1.333-1.585l-.233-.102-.91-.413a12.214 12.214 0 01-3.675-3.049c-.196-.203-.373-.407-.543-.579-.82-.865-1.66-.56-2.526-.248a6.69 6.69 0 01-1.97.477l-1.01.102a1.615 1.615 0 00-.834.407 1.914 1.914 0 00-.448 1.598c.165.945.432 1.869.795 2.756.707 2.03.827 5.358-1.503 5.842zM26 23.427l.373.299c.91.719 2.198 1.794 2.072 2.609-.127.814-1.547 1.578-2.027 1.706-.727.197.865.553 1.515 1.482.55.796.07 2.209.632 2.018 3.309-1.152 4.59-5.174 4.016-6.409a4.915 4.915 0 00-1.693-1.75 4.593 4.593 0 01-1.44-1.387c-.435-.828.342-1.999 1.327-2.807 1.616-1.33 3.24-1.483 3.883-1.063a.757.757 0 01.234.688 10.33 10.33 0 01-.284 1.845c-.398 1.91.43 5.868 4.383 5.868-2.33-.477-2.21-3.819-1.49-5.836.364-.886.629-1.81.789-2.756a1.871 1.871 0 00-.455-1.597 1.524 1.524 0 00-.827-.407l-1.004-.102a6.73 6.73 0 01-1.977-.478c-.884-.311-1.718-.636-2.526.249l-.537.579a12.195 12.195 0 01-3.688 3.048l-.896.414-.253.102a2.059 2.059 0 00-.87.614 2.081 2.081 0 00-.45.97c-.057.471.108 1.229 1.194 2.1zm35.208-4.04h-3.643c-.38 3.182-1.617 5.206-3.644 6.478 3.505-.178 6.308-3.163 7.287-6.478zm6.991 0H64.56c.98 3.315 3.79 6.3 7.281 6.478-2.014-1.272-3.252-3.303-3.643-6.478zm-5.367-2.177h5.431c.631-.828 2.576-3.552 2.576-6.244a3.547 3.547 0 00-.398-1.626 3.517 3.517 0 00-1.098-1.257 8.084 8.084 0 00-3.79-1.47l-2.683 4.532-2.69-4.532a8.122 8.122 0 00-3.789 1.47 3.543 3.543 0 00-1.092 1.26 3.573 3.573 0 00-.398 1.623c0 2.692 1.938 5.416 2.576 6.244h5.355z" fill="#3D3D3D"/><path d="M65.406 2.362a2.954 2.954 0 00-1.073-1.058 2.925 2.925 0 00-3.978 1.058l2.526 4.64 2.525-4.64zm13.819 23.503h4.47c.531-.681 2.123-2.915 2.123-5.13a2.938 2.938 0 00-1.232-2.373 6.676 6.676 0 00-3.094-1.21l-2.21 3.73-2.21-3.73a6.822 6.822 0 00-3.101 1.21 2.959 2.959 0 00-1.219 2.374c0 2.214 1.598 4.454 2.116 5.129h4.357z" fill="#3D3D3D"/><path d="M81.116 14.27a2.128 2.128 0 00-3.669 0l1.837 3.38 1.832-3.38zm-32.777 0a2.122 2.122 0 00-3.663 0l1.831 3.38 1.832-3.38z" fill="#3D3D3D"/><path d="M46.458 25.864h4.465c.53-.681 2.128-2.915 2.128-5.13a2.952 2.952 0 00-.344-1.345 2.926 2.926 0 00-.92-1.035 6.802 6.802 0 00-3.1-1.215l-2.21 3.735-2.21-3.735a6.802 6.802 0 00-3.1 1.215 2.946 2.946 0 00-1.225 2.38c0 2.215 1.59 4.455 2.121 5.13h4.395zm60.184 68.632a3.128 3.128 0 00-2.674-1.52 3.1 3.1 0 00-1.535.407 3.14 3.14 0 00-1.139 1.113l2.671 4.926 2.677-4.926zm-68.06-40.66l1.263-2.845v-.165l-.158-.045-.707.21-.095.09-.796 1.947-.751-1.381-.183-.07-.695.235-.101.09v.133l1.263 2.037a657.531 657.531 0 01-1.332 3.105v.166l.12.05h.05l.695-.235.088-.083c.297-.725.587-1.444.884-2.163.29.509.575 1.024.859 1.533l.177.07.7-.203.102-.09v-.14c-.486-.763-.935-1.508-1.383-2.246zm5.096-3.229l-.246-.331a1.16 1.16 0 00-.486-.236l-.082-.032a1.675 1.675 0 00-.632.032h-.145c-.205.048-.4.127-.581.236l-.221.127-.202.178-.246.274-.07.095a1.955 1.955 0 00-.297.637 2.135 2.135 0 00-.088.636v2.1c-.003.216.026.43.088.637.058.199.167.379.316.522l.05.032c.154.12.334.203.525.241h.233a2.1 2.1 0 00.562-.089 2.296 2.296 0 001.232-.77 2.02 2.02 0 00.353-.636c.084-.235.126-.483.127-.732V51.37a1.698 1.698 0 00-.101-.598l-.089-.165zm-.776 1.19v1.992l-.064.356-.177.3-.258.228-.303.14h-.38l-.214-.101-.126-.236-.045-.369v-2.075l.038-.292.133-.312.233-.268.411-.197h.367l.22.146.12.217.044.235v.236zm4.762.041l-.29-.242.227-.292.214-.459.082-.235v-.045l.14-.522.284-1.094v-.14l-.14-.051-.631.114-.114.115-.29 1.056-.152.541-.17.388h-.032l-.17.21-.221.134-.24.064-.398.089v-2.094l-.057-.12h-.126l-.632.146-.126.146v5.244l.057.12.095.033h.031l.632-.147.12-.152v-2.266l.505-.108h.271l.184.038.183.16.151.336.417 1.496.177.108.688-.12.095-.077v-.121l-.461-1.591a2.07 2.07 0 00-.303-.662zm4.649-.032a2.345 2.345 0 00-.303-.681l-.297-.255.215-.26c.105-.175.19-.36.253-.554l.063-.172.398-1.477v-.267l-.133-.044-.632.076-.132.115-.032.12-.404 1.452-.088.197-.07.172-.208.229-.215.12h-.063l-.177.045-.41.064v-2.107l-.057-.12h-.126l-.266.044-.398.07-.126.153v5.263l.05.12.102.039.67-.108.126-.153v-2.26l.492-.076h.265l.209.058.177.165.1.197.057.153.423 1.521.165.102.258-.032.436-.057.108-.07v-.127l-.089-.306-.34-1.349zm4.242-4.122c-.985.077-1.977.172-2.95.287l-.138.146v5.257l.063.114h.101a60.64 60.64 0 011.579-.146c.53-.045.903-.096 1.358-.134l.139-.152v-.637l-.051-.114-.114-.039-1.427.128-.695.063V51l.468-.038 1.351-.128.14-.152v-.56l-.045-.109-.114-.038-.53.051-.998.09h-.272v-1.414l2.148-.19.139-.16v-.585l-.051-.115-.101.032zm4.56-.25h-.631l-.133.082-.46.866c-.285.534-.57 1.069-.86 1.604v.031l-.29.573-.265.503v-3.411l-.044-.108-.114-.045-.632.038-.145.16v5.243l.044.115.108.044h.094l.55-.031.126-.083.89-1.674c.133-.248.26-.496.392-.738l.107-.204.19-.363.322-.636v3.418l.044.114.107.045h.676l.152-.153v-5.25l-.05-.115-.178-.025zm-2.722-.287l.392.248c.157.06.324.089.492.083h.082c.197-.003.39-.049.569-.134l.372-.28.215-.356.082-.363-.038-.114-.12-.051h-.53l-.152.152v.102l-.082.108-.133.096-.196.038h-.138l-.127-.076-.082-.108v-.102l-.151-.14h-.562l-.19.159.076.369.22.369zm9.055.813a1.95 1.95 0 00-1.301-.49l-1.585-.044-.108.044-.05.109v5.25l.151.153h.632l.107-.045.045-.114v-1.948h1.212l.385-.089.36-.204.183-.159.26-.407.056-.127v-.115c.04-.169.062-.342.063-.515a2.108 2.108 0 00-.177-.891l-.233-.408zm-.512 1.566v.064l-.107.222-.24.166-.335.05h-.833v-1.711h.865c.194.001.38.079.518.216.133.184.198.41.183.637l-.05.356zm4.694-1.133a1.783 1.783 0 00-.543-.446 2.157 2.157 0 00-.796-.229c-.28-.03-.562.002-.827.095a1.269 1.269 0 00-.556.37l-.17.229-.145.312a1.872 1.872 0 00-.101.585v2.1c.002.23.034.46.094.681.062.233.172.45.322.637.15.186.337.338.55.445.252.127.527.2.808.217h.31l.404-.051c.208-.059.402-.16.568-.3a1.35 1.35 0 00.379-.515c.089-.223.134-.46.132-.7v-2.234a1.836 1.836 0 00-.43-1.196zm-.562 1.648v1.725l-.063.318-.164.223-.183.095-.05.032h-.317l-.391-.108-.26-.217-.144-.312-.05-.388v-2.075l.037-.273.126-.248.247-.185.277-.057h.12l.392.127.253.248.132.287.044.254-.006.554zm2.763.569v-.822l.057-.292.145-.217.24-.133h.341a1 1 0 01.518.229l.259.432.183.115.632-.134.1-.082v-.121l-.151-.331a1.64 1.64 0 00-.455-.567l-.454-.273a2.179 2.179 0 00-.588-.178 2.037 2.037 0 00-.745 0l-.353.146-.221.146c-.155.143-.276.32-.354.516a1.84 1.84 0 00-.12.636v2.202c-.01.47.16.925.474 1.273l.233.216.322.21c.225.118.469.193.72.223h.348c.246.005.49-.047.713-.153a1.13 1.13 0 00.632-.712v-.051l-.07-.185-.631-.318h-.133l-.038.044-.044.051-.246.331a.722.722 0 01-.493.064l-.353-.115-.26-.216-.157-.286-.057-.319v-1.33h.006zm4.093-.173l.057-.287.076-.108.063-.102.233-.114h.335c.17.03.328.105.461.216l.063.038a.905.905 0 01.26.452l.056.076h.34l.392-.063.108-.07v-.128l-.14-.305a1.952 1.952 0 00-.46-.636 2.24 2.24 0 00-1.036-.49 1.705 1.705 0 00-.739 0c-.21.036-.408.126-.574.26a1.23 1.23 0 00-.354.497l-.095.369v2.495a2 2 0 00.12.706c.079.22.197.422.348.598.151.184.335.337.543.452.221.127.463.216.713.261l.455.051c.217.004.431-.037.632-.12a1.106 1.106 0 00.631-.733l-.07-.184-.63-.35h-.133l-.089.101-.234.312a.753.753 0 01-.486.038l-.353-.133-.253-.236-.164-.292-.057-.325V50.45l-.019-.012zm6.196-.212l-.145.064-.202.337-.259.414-.827 1.336-.562.948V49.83l-.114-.152-.631-.147h-.133l-.057.121v5.25l.12.153.632.147.17-.07 1.352-2.209.499-.82v3.487l.113.153h.076l.126.038.348.089.1.032h.133l.064-.121v-5.257l-.114-.146-.688-.153zm4.73 1.402l-.177.064c-.43.668-.846 1.336-1.263 2.01l-.55.905v-3.5l-.12-.153-.63-.191h-.14l-.063.12v5.257l.108.147.631.184.177-.063c.442-.72.89-1.426 1.332-2.126l.487-.795v3.506l.107.147.632.216h.138l.064-.127v-5.244l-.102-.147-.631-.21zM77.172 93.65c-.228-.578-1.004-.763-1.895-1.635-.436-.452-.322-.859-.473-1.273a25.443 25.443 0 00-1.73-4.257 6.851 6.851 0 00-.418-.637c-.416-.591-.745-.75-.789-1.272-.114-1.197-.72-1.941-.796-2.342-.075-.401.436-.898.26-1.241a33.02 33.02 0 01-2.33-5.99c-.203-.718-1.396-1.221-1.396-1.857l-.108-.331c-.246-.414-.852-.681-.846-.745a6.567 6.567 0 000-2.756c-.278-1.234-1.774-2.456-4.08-4.098.083-.637.392-2.247.247-2.667l-.234-.394a3.558 3.558 0 00-.492-1.407c-.24-.273-.41-.146-.828-.14a1.718 1.718 0 01-.852-.178c-.537-.356-1.225-.325-2.002.751-.126.178-.328.223-.41.426a5.862 5.862 0 00-.322 1.324c-.095.77 0 .91-.057 1.14-.897-.039-2.078 0-2.425.254-2.425 1.788-3.833 5.053-3.46 5.377.372.325.58 2.419.726 3.412 0 0-.588.133-.468.496l.24.72-.095.49c.076.428.221.84.43 1.221.126.21.328.166.36.274.814 2.915 2.355 2.902 2.355 2.902v1.145c-.574.751-1.484 2.1-1.49 2.623l.057.171c.24.242.41.338.379.522a1.142 1.142 0 01-.442.433.537.537 0 00.139.79c.41.117.839.154 1.263.107l-.5 10.979c0 .146-.081.451-.353.21a9.031 9.031 0 01-1.18-1.477.997.997 0 00-.304-.325c-.158-.07-.227.109-.259.312a3.982 3.982 0 00.108 1.604l.113.216a3.702 3.702 0 001.699 1.222c.707.255.739-.197.783-1.489 0-.636.297-6.434.568-11.366l.272-.096a6.933 6.933 0 002.267-2.393c.259.739.246 2.368.58 2.769.462.553.632.362 1.036 1.45.095.262 1.042.599 1.447 1.274.896 1.527 3.997 3.34 4.957 3.742.328.133.713-.21.884.254.233.637.322.599.631.713.31.115.322 1.025.86 1.42.536.394 1.136.19 1.628.407.493.216 1.049.929 1.13.878.083-.051-.315-.7-.542-1.273a1.32 1.32 0 010-.75c.271-1.49-1.44-2.317-1.674-2.973-.398-1.095-.631-.484-.953-1-.96-1.393-1.718-2.927-2.88-3.818-.271-.203-.562-.184-.631-.28a9.729 9.729 0 00-.632-1.336c-.114-.172.202-.796-.05-1.171a1.473 1.473 0 01-.253-.866c-.038-1.374.145-.522.461.128.361.86.803 1.686 1.32 2.463.17.171.486-.064.631.159a8.317 8.317 0 002.122 2.399c.215.165.335.834 1.03 1.833 1.427 2.05 2.917 3.016 3.321 4.092.088.25.216.485.379.694.29.337.562.33.834.731.391.573.896 1.12 1.32 1.165.422.045.593-.14.921-.089.329.051 1.333.821 1.402.783.07-.038-.631-1.127-.631-1.407.063-.375.265-.802.12-1.145zM55.91 74.203c-.158-.216-.095-.948-.184-1.082l-.265-.369c.044-.71.141-1.417.29-2.113.064 1.273 1.895 5.804 1.895 5.804s-1.585-2.03-1.736-2.24z" fill="#3D3D3D"/></svg>758C43.2904 50.16 43.1238 50.0793 42.9457 50.0403L42.8636 50.0085C42.653 49.9789 42.4387 49.9897 42.2321 50.0403H42.0868C41.8821 50.0876 41.6861 50.1671 41.5059 50.2758L41.2848 50.4031L41.0828 50.5813L40.8365 50.8549L40.767 50.9504C40.6306 51.1426 40.53 51.3583 40.4702 51.5868C40.4088 51.7932 40.379 52.0078 40.3818 52.2232V54.3234C40.3786 54.5388 40.4085 54.7535 40.4702 54.9598C40.5283 55.1586 40.6372 55.3386 40.786 55.4817L40.8365 55.5135C40.9904 55.6337 41.1697 55.7165 41.3606 55.7553H41.5059H41.5943C41.7847 55.7509 41.9737 55.7209 42.1563 55.6662C42.4 55.607 42.6325 55.5081 42.8446 55.3735C43.0505 55.2457 43.2341 55.0844 43.3877 54.8962C43.543 54.7075 43.6628 54.4918 43.7413 54.2598C43.8246 54.0249 43.8673 53.7773 43.8676 53.5279V51.3704C43.8701 51.1665 43.8359 50.9638 43.7666 50.7722L43.6782 50.6067ZM42.9015 51.7968V53.7888L42.8383 54.1452L42.6615 54.4443L42.4026 54.6734L42.0995 54.8134H41.7206L41.5059 54.7116L41.3796 54.4761L41.3354 54.107V52.0323L41.3733 51.7396L41.5059 51.4277L41.7395 51.1604L42.15 50.9631H42.3773H42.5163L42.7373 51.1095L42.8572 51.3259L42.9015 51.5613V51.7968Z" fill="#3D3D3D"/>
<path d="M47.6637 51.8381L47.3732 51.5962L47.6006 51.3035L47.8152 50.8452L47.8973 50.6098V50.5652L48.0363 50.0434L48.3205 48.9487V48.8087L48.1815 48.7578L47.55 48.8724L47.4364 48.9869L47.1459 50.0434L46.9943 50.5843L46.8238 50.9725H46.7922L46.6218 51.1825L46.4007 51.3162L46.1607 51.3798L45.7629 51.4689V49.3751L45.7061 49.2542H45.5798L44.9483 49.4006L44.822 49.547V54.791L44.8788 54.9119L44.9735 54.9437H45.0051L45.6366 54.7974L45.7566 54.6446V52.379L46.2618 52.2708H46.5333L46.7165 52.309L46.8996 52.4681L47.0512 52.8054L47.4679 54.301L47.6448 54.4092L48.3331 54.2882L48.4278 54.2119V54.091L47.9668 52.4999C47.9056 52.2629 47.8029 52.0388 47.6637 51.8381Z" fill="#3D3D3D"/>
<path d="M52.3132 51.806C52.249 51.5641 52.1467 51.3341 52.0101 51.125L51.7133 50.8705L51.928 50.6095C52.0333 50.4355 52.1181 50.2497 52.1806 50.0558L52.2437 49.884L52.6416 48.4075V48.2866V48.1402L52.509 48.0957L51.8775 48.1721L51.7448 48.2866L51.7133 48.4075L51.3091 49.8585L51.2207 50.0558L51.1512 50.2277L50.9428 50.4568L50.7282 50.5777H50.665L50.4882 50.6222L50.0777 50.6859V48.5793L50.0209 48.4584H49.8946L49.6294 48.503L49.2315 48.573L49.1052 48.7257V50.635V53.9889L49.1558 54.1098L49.2568 54.148L49.9262 54.0398L50.0525 53.8871V51.6278L50.545 51.5514H50.7724H50.8103L51.0186 51.6087L51.1955 51.7742L51.2965 51.9714L51.3533 52.1242L51.7764 53.6452L51.9406 53.7471L52.1995 53.7152L52.6352 53.658L52.7426 53.588V53.4607L52.6542 53.1552L52.3132 51.806Z" fill="#3D3D3D"/>
<path d="M56.555 47.6842C55.5698 47.7605 54.5784 47.856 53.6059 47.9706L53.467 48.1169V53.3737L53.5302 53.4882H53.6312C54.149 53.431 54.6794 53.3864 55.2099 53.3419C55.7403 53.2973 56.1129 53.2464 56.5676 53.2082L56.7065 53.0555V52.4191L56.656 52.3045L56.5423 52.2663L55.1152 52.3936L54.4205 52.4573V50.9999L54.8878 50.9617L56.2392 50.8344L56.3782 50.6817V50.1216L56.334 50.0134L56.2203 49.9752L55.6898 50.0262L54.6921 50.1153H54.4205V48.7024L56.5676 48.5115L56.7065 48.3524V47.7669L56.656 47.6523L56.555 47.6842Z" fill="#3D3D3D"/>
<path d="M61.1154 47.4336H60.4839L60.3512 47.5163L59.8903 48.3818C59.6061 48.9164 59.3219 49.451 59.0314 49.9856V50.0174L58.741 50.5902L58.4757 51.093V47.6818L58.4315 47.5736L58.3178 47.5291L57.6863 47.5673L57.5411 47.7264V52.9704L57.5853 53.085L57.6927 53.1295H57.7874L58.3368 53.0977L58.4631 53.015L59.3535 51.3412C59.4861 51.093 59.6124 50.8448 59.745 50.603L59.8524 50.3993L60.0418 50.0365L60.3639 49.4001V52.8177L60.4081 52.9322L60.5154 52.9768H61.1911L61.3427 52.824V47.5736L61.2922 47.4591L61.1154 47.4336Z" fill="#3D3D3D"/>
<path d="M58.3929 47.147L58.7845 47.3952C58.9416 47.4556 59.109 47.4837 59.277 47.478H59.3591C59.5559 47.4751 59.7498 47.4295 59.9275 47.3443L60.3 47.0643L60.5148 46.7079L60.5969 46.3452L60.559 46.2306L60.439 46.1797H59.9085L59.757 46.3324V46.4342L59.6749 46.5424L59.5423 46.6379L59.3465 46.6761H59.2076L59.0813 46.5997L58.9992 46.4915V46.3897L58.8476 46.2497H58.2856L58.0962 46.4088L58.1719 46.7779L58.3929 47.147Z" fill="#3D3D3D"/>
<path d="M67.4478 47.9604C67.0881 47.6423 66.6254 47.468 66.1469 47.4703L64.5619 47.4258L64.4545 47.4703L64.404 47.5786V52.829L64.5555 52.9817H65.187L65.2944 52.9372L65.3386 52.8226V50.8752H66.1343H66.5511L66.9363 50.7861L67.2962 50.5824L67.4793 50.4233L67.7383 50.016L67.7951 49.8887V49.7742C67.8355 49.6053 67.8567 49.4324 67.8583 49.2587C67.8647 48.9522 67.8044 48.6481 67.6814 48.3677L67.4478 47.9604ZM66.9363 49.526V49.5896L66.8289 49.8123L66.589 49.9778L66.2542 50.0287H66.1911H65.4207V48.3168H66.1722H66.2858C66.4798 48.3182 66.6656 48.3959 66.8036 48.5332C66.9371 48.717 67.002 48.9423 66.9868 49.1696L66.9363 49.526Z" fill="#3D3D3D"/>
<path d="M71.6301 48.3927C71.4801 48.2094 71.2955 48.058 71.087 47.9472C70.8388 47.8201 70.5686 47.7423 70.2913 47.7181C70.0119 47.6877 69.7294 47.7203 69.4641 47.8135C69.2494 47.8843 69.0575 48.0117 68.9083 48.1826L68.7378 48.4118L68.5926 48.7236C68.528 48.912 68.4939 49.1097 68.4916 49.3091V51.4093C68.4939 51.6394 68.5257 51.8683 68.5863 52.0902C68.6482 52.3228 68.7579 52.5396 68.9083 52.7266C69.0581 52.9126 69.2454 53.0645 69.4577 53.1721C69.7096 53.2992 69.9848 53.3729 70.2661 53.3885H70.4807H70.5755L70.9796 53.3376C71.188 53.2795 71.3816 53.1776 71.548 53.0385C71.7136 52.8998 71.8435 52.723 71.9269 52.523C72.0156 52.3005 72.0607 52.0627 72.0595 51.8229V49.5891C72.0598 49.3724 72.0235 49.1572 71.9521 48.9527C71.8786 48.7482 71.7695 48.5586 71.6301 48.3927ZM71.068 50.041V51.7656L71.0049 52.0839L70.8407 52.3066L70.6576 52.4021L70.6071 52.4339H70.2913L69.8998 52.3257L69.6409 52.1093L69.4956 51.7975L69.4451 51.4093V49.3345L69.483 49.0609L69.6093 48.8127L69.8556 48.6281L70.1334 48.5709H70.2534L70.6449 48.6981L70.8976 48.9463L71.0301 49.2327L71.0743 49.4873L71.068 50.041Z" fill="#3D3D3D"/>
<path d="M73.8312 50.6094V49.7884L73.888 49.4956L74.0332 49.2793L74.2732 49.1456H74.6142C74.805 49.1704 74.9848 49.2499 75.132 49.3747L75.391 49.8075L75.5741 49.9221L76.2056 49.7884L76.3066 49.7057V49.5847L76.155 49.2538C76.0475 49.0331 75.8921 48.8395 75.7004 48.6874L75.2457 48.4138C75.0592 48.3269 74.8615 48.2669 74.6584 48.2355C74.4121 48.1897 74.1596 48.1897 73.9133 48.2355L73.5596 48.3819L73.3386 48.5283C73.1839 48.6713 73.0631 48.8475 72.985 49.0438C72.9077 49.247 72.8671 49.4626 72.865 49.6802V51.8822C72.8558 52.3518 73.0253 52.8073 73.3386 53.155L73.5723 53.3714L73.8943 53.5814C74.1189 53.699 74.3628 53.7744 74.6142 53.8042H74.9616C75.2079 53.8092 75.4521 53.7569 75.6751 53.6514C75.8253 53.5858 75.9596 53.4881 76.0686 53.365C76.1777 53.2419 76.2589 53.0965 76.3066 52.9386V52.8877L76.2371 52.7032L75.6057 52.385H75.4731L75.4352 52.4295L75.391 52.4804L75.1447 52.8114C74.993 52.8902 74.8186 52.9128 74.6521 52.875L74.2985 52.7604L74.0396 52.5441L73.8817 52.2577L73.8248 51.9395V50.6094H73.8312Z" fill="#3D3D3D"/>
<path d="M77.924 50.4365L77.9808 50.1502L78.0566 50.042L78.1197 49.9401L78.3534 49.8256H78.688C78.8575 49.8569 79.0162 49.9314 79.1491 50.042L79.2122 50.0802C79.3407 50.2018 79.4307 50.359 79.4711 50.532L79.5279 50.6084H79.6479H79.8689L80.2604 50.5447L80.3678 50.4747V50.3474L80.2289 50.042C80.1197 49.8005 79.9629 49.5839 79.7679 49.4056C79.4704 49.1549 79.1136 48.9861 78.7323 48.9155C78.4889 48.8615 78.2368 48.8615 77.9934 48.9155C77.7831 48.9521 77.5853 49.0419 77.4187 49.1764C77.2613 49.3092 77.1396 49.48 77.0651 49.6728L76.9704 50.042V50.3347V52.5367C76.9676 52.7776 77.0082 53.0169 77.0904 53.2431C77.169 53.4622 77.2867 53.665 77.4377 53.8413C77.5891 54.0249 77.7733 54.1781 77.9808 54.2932C78.2022 54.4204 78.4435 54.5087 78.6944 54.5541L79.1491 54.6051C79.3656 54.6088 79.5805 54.5677 79.7805 54.4841C79.9338 54.418 80.0701 54.3178 80.1795 54.1911C80.2888 54.0644 80.3684 53.9143 80.412 53.7522L80.3425 53.5677L79.7111 53.2177H79.5785L79.4901 53.3195L79.2564 53.6313C79.1029 53.6977 78.932 53.7111 78.7701 53.6695L78.4165 53.5359L78.1639 53.3004L77.9997 53.0076L77.9429 52.6831V50.4493L77.924 50.4365Z" fill="#3D3D3D"/>
<path d="M84.1205 50.225L83.9752 50.2886L83.7732 50.6259L83.5143 51.0396L82.687 52.376L82.125 53.3243V49.8304L82.0113 49.6777L81.3798 49.5312H81.2472L81.1904 49.6522V54.9026L81.3104 55.0554L81.9419 55.2017L82.1124 55.1317L83.4637 52.9234L83.9626 52.1024V55.5899L84.0763 55.7427H84.1521L84.2784 55.7808L84.6257 55.87L84.7267 55.9018H84.7646H84.8593L84.9225 55.7808V50.5241L84.8088 50.3777L84.1205 50.225Z" fill="#3D3D3D"/>
<path d="M88.85 51.6272L88.6732 51.6909C88.2438 52.3591 87.827 53.0273 87.4102 53.7019L86.8608 54.6056V51.1054L86.7409 50.9526L86.1094 50.7617H85.9705L85.9073 50.8826V56.1394L86.0147 56.2858L86.6462 56.4703L86.823 56.4067C87.265 55.6876 87.7133 54.9811 88.1554 54.2811L88.6416 53.4855V56.9922L88.749 57.1386L89.3805 57.355H89.4247H89.5194L89.5826 57.2277V51.9836L89.4815 51.8373L88.85 51.6272Z" fill="#3D3D3D"/>
<path d="M77.1717 93.6508C76.9444 93.0717 76.1676 92.8871 75.2772 92.0152C74.8415 91.5634 74.9552 91.1561 74.8036 90.7424C74.3562 89.2732 73.777 87.8482 73.0733 86.4848C72.947 86.2684 72.8081 86.052 72.6565 85.8484C72.2398 85.2565 71.9114 85.0974 71.8672 84.5755C71.7535 83.3791 71.1473 82.6345 71.0715 82.2335C70.9957 81.8326 71.5073 81.3362 71.3304 80.9926C70.3612 79.078 69.5808 77.0721 69.0002 75.0039C68.7982 74.2847 67.6046 73.782 67.6046 73.1456L67.4973 72.8146C67.251 72.401 66.6448 72.1337 66.6511 72.07C66.846 71.162 66.846 70.2224 66.6511 69.3143C66.3732 68.0797 64.8766 66.8578 62.5717 65.2158C62.6538 64.5794 62.9632 62.9693 62.8179 62.5493L62.5843 62.1547C62.5211 61.6559 62.3532 61.1765 62.0918 60.7482C61.8518 60.4746 61.6813 60.6018 61.2645 60.6082C60.9699 60.623 60.6764 60.5617 60.412 60.43C59.8752 60.0736 59.1869 60.1054 58.4102 61.181C58.2839 61.3592 58.0818 61.4037 57.9997 61.6074C57.8413 62.0344 57.7333 62.4787 57.6777 62.9311C57.5829 63.7012 57.6776 63.8412 57.6208 64.0703C56.7241 64.0321 55.5432 64.0703 55.1959 64.3249C52.771 66.1132 51.3628 69.378 51.7353 69.7025C52.1079 70.0271 52.3163 72.1209 52.4616 73.1138C52.4616 73.1138 51.8743 73.2474 51.9943 73.6101L52.2342 74.3293L52.1395 74.8193C52.2154 75.2476 52.3604 75.6603 52.5689 76.0412C52.6952 76.2513 52.8973 76.2067 52.9289 76.3149C53.7435 79.2297 55.2843 79.2169 55.2843 79.2169V80.3625C54.7096 81.1134 53.8003 82.4626 53.794 82.9845L53.8508 83.1563C54.0908 83.3982 54.2613 83.4937 54.2297 83.6782C54.1247 83.8607 53.9717 84.0105 53.7877 84.111C53.7409 84.1703 53.7071 84.239 53.6886 84.3125C53.6701 84.3859 53.6674 84.4625 53.6805 84.5371C53.6937 84.6118 53.7224 84.6827 53.7648 84.7453C53.8072 84.8079 53.8624 84.8606 53.9266 84.9001C54.3367 85.0182 54.7656 85.055 55.1896 85.0083L54.6907 95.9865C54.6907 96.1329 54.6086 96.4383 54.3371 96.1965C53.8932 95.7474 53.4974 95.2525 53.1562 94.72C53.0807 94.5902 52.9771 94.4793 52.8531 94.3954C52.6952 94.3254 52.6257 94.5036 52.5941 94.7073C52.5205 95.2436 52.5571 95.7895 52.7015 96.311L52.8152 96.5274C53.2534 97.0905 53.8431 97.5147 54.5139 97.7493C55.2212 98.0039 55.2527 97.5521 55.2969 96.2601C55.2969 95.6237 55.5937 89.826 55.8653 84.8937L56.1368 84.7983C57.0725 84.196 57.8501 83.3752 58.4039 82.4054C58.6628 83.1436 58.6501 84.7728 58.9848 85.1738C59.4458 85.7275 59.6163 85.5365 60.0205 86.6248C60.1152 86.8857 61.0624 87.223 61.4666 87.8976C62.3633 89.425 65.4639 91.2388 66.4238 91.6398C66.7521 91.7734 67.1374 91.4297 67.3079 91.8943C67.5415 92.5307 67.6299 92.4926 67.9394 92.6071C68.2488 92.7217 68.2614 93.6317 68.7982 94.0263C69.3349 94.4209 69.9349 94.2172 70.4274 94.4336C70.92 94.65 71.4757 95.3628 71.5578 95.3119C71.6399 95.261 71.242 94.6118 71.0147 94.0391C70.942 93.7941 70.942 93.533 71.0147 93.2881C71.2862 91.7988 69.5749 90.9715 69.3412 90.316C68.9434 89.2214 68.7097 89.8323 68.3877 89.3168C67.4278 87.9231 66.67 86.3893 65.5081 85.4983C65.2366 85.2947 64.9461 85.3138 64.8766 85.2183C64.7002 84.7573 64.4891 84.3105 64.2451 83.8819C64.1315 83.71 64.4472 83.0863 64.1946 82.7109C64.0221 82.4563 63.9337 82.1535 63.942 81.8453C63.9041 80.4707 64.0872 81.3235 64.403 81.9726C64.7645 82.8339 65.2065 83.6585 65.7228 84.4355C65.8933 84.6074 66.2091 84.3719 66.3543 84.5947C66.9005 85.5255 67.6211 86.3404 68.4761 86.9939C68.6908 87.1594 68.8108 87.8277 69.5054 88.8268C70.9326 90.8761 72.4229 91.8434 72.8271 92.919C72.9149 93.1695 73.0429 93.4038 73.2059 93.6126C73.4964 93.9499 73.768 93.9436 74.0395 94.3445C74.431 94.9173 74.9362 95.4646 75.3593 95.5092C75.7824 95.5537 75.9529 95.3691 76.2813 95.4201C76.6097 95.471 77.6137 96.241 77.6832 96.2028C77.7527 96.1647 77.0517 95.0764 77.0517 94.7964C77.1149 94.4209 77.3169 93.9945 77.1717 93.6508ZM55.9095 74.202C55.7516 73.9856 55.8148 73.2537 55.7263 73.1201L55.4611 72.751C55.505 72.0403 55.6021 71.334 55.7516 70.6381C55.8147 71.9109 57.6461 76.4422 57.6461 76.4422C57.6461 76.4422 56.061 74.412 55.9095 74.202Z" fill="#3D3D3D"/>
</svg>
