<svg width="63" height="65" viewBox="0 0 63 65" fill="none" xmlns="http://www.w3.org/2000/svg"><path d="M51.888 27.534l.139-1.358a29.353 29.353 0 009.43-3.855s2.084-3.204.266-6.827a28.423 28.423 0 01-9.895 7.803l-.026-.117a12.959 12.959 0 00-.261-1.413c.284-.172 5.77-3.524 7.966-7.634 0 0 .755-4.288-2.525-6.82-1.2 4.666-4.005 8.614-6.628 11.48a6.9 6.9 0 00-.976-1.308c-.476 1.96-1.77 4.136-4.027 5.917l-.044-.016a43.795 43.795 0 00-6.843-1.67 5.972 5.972 0 011.054-1.676s2.777-.366 2.84.763a1.025 1.025 0 00.278-1.02c1.162.699 3.075.953 3.583-.907-.843 1.526-3.157-.602-5.158-.745l.177-.168.215-.204h2.597l.613.706 2.367-2.105-1.297-1.502h-2.468l1.262-1.24h-7.67c-1.174 0-3.73-.03-3.535-1.438-.862 1.705.208 2.844 1.957 3.028-.464.61-2.21 1.34-2.595.506-.079 1.167 1.108 1.313 1.108 1.313a22.66 22.66 0 00-2.427 3.5 22.415 22.415 0 00-2.427-3.5s1.19-.146 1.11-1.313c-.397.833-2.133.105-2.597-.506 1.752-.184 2.822-1.323 1.96-3.028.193 1.409-2.364 1.438-3.538 1.438h-7.68l1.263 1.24h-2.484l-1.294 1.502 2.364 2.105.612-.706h2.598l.218.204.173.168c-2.01.143-4.314 2.271-5.154.745.508 1.857 2.418 1.59 3.582.906a1.026 1.026 0 00.275 1.021c.076-1.129 2.84-.763 2.84-.763a5.946 5.946 0 011.055 1.68c-2.312.366-4.59.919-6.815 1.654l-.04.016c-2.26-1.766-3.555-3.958-4.031-5.917a6.896 6.896 0 00-.976 1.307C9.77 15.917 6.966 11.966 5.751 7.3c-3.292 2.545-2.525 6.82-2.525 6.82 2.21 4.116 7.683 7.469 7.967 7.634-.114.466-.201.937-.262 1.413l-.026.117a28.459 28.459 0 01-9.895-7.802c-1.815 3.623.268 6.826.268 6.826a29.314 29.314 0 009.429 3.855l.141 1.359C4.277 26.819.035 24.34.035 24.34a6.086 6.086 0 00.487 3.116A6.035 6.035 0 002.5 29.9s4.665.903 8.99.099l.466 1.107a31.41 31.41 0 01-9.784.916c.71 3.763 3.974 4.135 3.974 4.135a38.11 38.11 0 007.12-2.907l.657.814a40.16 40.16 0 01-7.45 3.989c1.31 2.424 4.319 2.147 4.319 2.147a35.384 35.384 0 004.734-4.571l.767.547a44.447 44.447 0 01-4.778 5.646c1.979 1.371 4.472.713 4.472.713a44.402 44.402 0 002.248-5.217c.546.27 1.113.497 1.694.678v4.256c-1.966.318-2.875 1.205-3.184 2.316l-.026.108-.031.133a6.594 6.594 0 00-.044.28v.08c-.183 1.775.57 4.393-.47 4.533a1.145 1.145 0 001.511-.366c.268.52.564 1.024.887 1.51a7.463 7.463 0 01-2.787.681c-1.262 0-2.348-.375-3.472-1.765-.707-.865-1.483-1.167-2.21-.019l-2.941-2.94a.774.774 0 00-.19-.546c1.724-1.839-.037-4.416-1.543-4.482-.537-.026.546 1.797-.42 2.093-.457.14-.849-.722-.17-1.13-.3-.046-.605.004-.874.144a.574.574 0 00-.206-.632.562.562 0 00-.66-.005l-.028-.031a.74.74 0 00-.816-.208.738.738 0 00-.42.404.75.75 0 00.17.831l.025.022a.577.577 0 00.203.942c.12.046.25.05.371.013a1.444 1.444 0 00-.202.983c.404-.688 1.263-.29 1.114.178-.296.97-2.102-.134-2.077.407.057 1.517 2.608 3.305 4.441 1.59.15.133.344.203.543.197l2.73 2.88c-.441.289-.729 1.154.083 1.8-.41 1.409.694 2.77 4.387 2.882A1031.33 1031.33 0 0016.3 57.95c.378.375.675.474.84.445a.706.706 0 00.381-.203.74.74 0 00.218-.392 1.143 1.143 0 00-.43-.855l-2.414-2.411c.584-.516 3.156-2.672 5.334-2.863-.315-1.422-.277-2.53-.031-3.305.034.136.085.25.13.378.694 2.096 2.366 2.691 4.63 2.739l-5.546 5.548a10.41 10.41 0 00.088 2.662 9.874 9.874 0 002.598.26l4.782-7.633s.947.089.666.55l-4.078 8.006c.22 1.079 1.158 2.338 1.158 2.338a13.636 13.636 0 002.547-.836l2.794-9.292.707.484-1.954 9.466A7.437 7.437 0 0031.38 65a7.403 7.403 0 002.662-1.963l-1.957-9.466.71-.484 2.793 9.292c.821.362 1.675.642 2.55.837 0 0 .947-1.273 1.156-2.339l-4.081-8.006c-.269-.461.669-.55.669-.55l4.782 7.634a9.914 9.914 0 002.594-.26c.145-.88.176-1.776.092-2.663l-5.546-5.564c2.427-.05 4.192-.703 4.785-3.18.265.778.316 1.908 0 3.368 1.178.14 2.309.55 3.307 1.197a7.84 7.84 0 012.45 2.537c.985 1.66 3.393 2.774 4.306 1.034.984.47 3.21-.604 2.761-2.255a3.974 3.974 0 00-.6-4.543 3.921 3.921 0 00-1.312-.932l-.613 1.13-.978 1.8-.979-1.8-.615-1.13a3.952 3.952 0 00-1.645 1.361 3.996 3.996 0 00-.703 2.024c-1.2-.493-2.43-.912-3.68-1.254.304-.472.581-.961.83-1.466a1.147 1.147 0 001.515.366c-1.042-.14-.291-2.758-.474-4.533v-.08c0-.095-.025-.19-.041-.28l-.035-.133-.022-.108c-.316-1.117-1.228-2.023-3.22-2.322v-4.263a11.44 11.44 0 001.692-.677 45.305 45.305 0 002.245 5.216s2.5.659 4.478-.712a44.497 44.497 0 01-4.804-5.64l.77-.547a35.31 35.31 0 004.735 4.57s3.008.278 4.315-2.146a40.073 40.073 0 01-7.446-3.99l.657-.814a38.027 38.027 0 007.123 2.908s3.261-.379 3.974-4.135c-3.289.21-6.59-.1-9.784-.917l.467-1.107c4.327.805 8.992-.098 8.992-.098a6.035 6.035 0 001.978-2.445 6.087 6.087 0 00.487-3.116s-4.26 2.475-10.832 3.178zm-9.47-12.501l-.773.76-2.525-.76h3.299zm-21.343.76l-.773-.76H23.6l-2.525.76zM2.99 43.808a.58.58 0 00-.063-.461l.098-.076.047-.058a.577.577 0 00.398.093.474.474 0 00.07.604.454.454 0 00-.55-.102zm38.824 3.868a4.078 4.078 0 01-.632 1.658l-.176.229a4.196 4.196 0 01-.269.264c-.789.665-1.938.852-3.396.852H35.34c-.465 0-.93.045-1.386.137-.89.155-1.71.59-2.342 1.24l-.316.319-.315-.319a4.406 4.406 0 00-2.648-1.297 7.221 7.221 0 00-1.077-.08h-2.007c-2.087 0-3.545-.391-4.204-2.023-.038-.095-.067-.207-.101-.318v-18.92c.902-.226 1.739-.41 2.544-.56a42.86 42.86 0 014.551-.589 43.895 43.895 0 013.29-.124c3.51-.003 7.007.424 10.415 1.272h.044l.026 18.26zm4.766-17.543a32.537 32.537 0 00-3.788.388v-1.61l-.076-.018c-.177-.048-.356-.086-.533-.134l-.174-.041h-.063A43.78 43.78 0 0028 27.544a43.525 43.525 0 00-4.627.598c-.912.169-1.815.372-2.714.598l-.335.086-.338.082h-.072v1.611a32.583 32.583 0 00-3.788-.389c.59-1.783.59-3.71 0-5.494v-.028c.502-.191 1.01-.363 1.518-.531a42.961 42.961 0 0111.322-2.125c.227 0 .455-.032.679-.042h.123a44.7 44.7 0 011.597-.032h.186c.512 0 1.023 0 1.534.03.18 0 .363.025.546.03.389.023.78.04 1.171.07h.089a39.9 39.9 0 011.622.16c.54.064 1.136.143 1.704.235 2.329.365 4.624.921 6.862 1.664.332.111.66.23.988.347.177.06.354.117.527.184 0 .013-1.275 2.275 0 5.535h-.015z" fill="#E7E3CC"/><path d="M43.303 12.8c1.976 0 2.39-1.979 2.19-2.933a5.113 5.113 0 01-.138-.922.356.356 0 01.113-.344c.316-.21 1.134-.134 1.942.531.492.404.883.99.662 1.403-.186.28-.43.518-.716.694a2.406 2.406 0 00-.846.874c-.287.617.35 2.628 2.004 3.204.287.095.044-.611.316-1.009.316-.464 1.117-.636.754-.74-.236-.065-.947-.42-1.01-.853-.063-.433.581-.955 1.036-1.305l.186-.15c.54-.435.631-.813.6-1.052-.032-.239-.158-.534-.666-.792l-.117-.051-.455-.207a6.106 6.106 0 01-1.837-1.523c-.098-.102-.186-.204-.271-.29-.41-.433-.83-.28-1.263-.124a3.31 3.31 0 01-.985.239l-.505.05a.805.805 0 00-.416.204.956.956 0 00-.224.798c.082.473.216.935.397 1.378.354 1.015.414 2.678-.75 2.92zm-30.379-1.55l.186.15c.455.36 1.099.897 1.036 1.304-.063.407-.774.79-1.014.853-.362.098.433.277.758.741.275.398.035 1.104.316 1.008 1.654-.575 2.294-2.586 2.007-3.203a2.457 2.457 0 00-.846-.875 2.296 2.296 0 01-.72-.693c-.217-.414.171-.999.663-1.403.808-.665 1.62-.741 1.942-.531a.378.378 0 01.116.343c-.019.312-.067.62-.142.923-.198.954.215 2.933 2.19 2.933-1.164-.239-1.104-1.909-.744-2.917.182-.443.314-.905.395-1.378a.935.935 0 00-.228-.798.761.761 0 00-.413-.204l-.502-.05a3.367 3.367 0 01-.988-.239c-.442-.156-.859-.318-1.263.124l-.268.29a6.095 6.095 0 01-1.843 1.523l-.448.207-.127.05a1.03 1.03 0 00-.66.793c-.028.235.054.614.597 1.05zm17.598-2.02h-1.821c-.19 1.591-.808 2.603-1.821 3.239 1.751-.09 3.153-1.581 3.642-3.238zm3.494 0h-1.818c.49 1.658 1.894 3.15 3.64 3.239-1.008-.636-1.626-1.651-1.822-3.238zm-2.682-1.087h2.714c.316-.414 1.288-1.775 1.288-3.12a1.772 1.772 0 00-.748-1.442 4.04 4.04 0 00-1.894-.734L31.353 5.11l-1.345-2.264a4.06 4.06 0 00-1.894.734 1.77 1.77 0 00-.745 1.441c0 1.346.97 2.707 1.288 3.12h2.677z" fill="#E7E3CC"/><path d="M32.62.722A1.477 1.477 0 0031.358 0a1.462 1.462 0 00-1.263.722l1.263 2.319L32.62.72zm6.907 11.748h2.235c.265-.341 1.06-1.458 1.06-2.565a1.47 1.47 0 00-.615-1.186 3.337 3.337 0 00-1.547-.605L39.556 9.98 38.45 8.114c-.558.07-1.09.278-1.55.605a1.466 1.466 0 00-.609 1.186c0 1.107.799 2.227 1.057 2.564h2.178z" fill="#E7E3CC"/><path d="M40.472 6.673a1.074 1.074 0 00-.917-.522 1.063 1.063 0 00-.917.522l.919 1.69.915-1.69zm-16.382.001a1.07 1.07 0 00-.916-.523 1.06 1.06 0 00-.915.523l.915 1.689.915-1.69z" fill="#E7E3CC"/><path d="M23.15 12.47h2.231c.265-.341 1.064-1.458 1.064-2.565a1.475 1.475 0 00-.632-1.19 3.4 3.4 0 00-1.55-.607L23.16 9.975l-1.105-1.867a3.4 3.4 0 00-1.55.608 1.46 1.46 0 00-.612 1.19c0 1.106.796 2.226 1.06 2.563h2.197zm30.081 34.303a1.568 1.568 0 00-1.336-.76 1.554 1.554 0 00-1.337.76l1.335 2.462 1.338-2.462zM19.213 26.45l.63-1.422v-.083l-.078-.022-.354.105-.047.044-.398.974-.375-.69-.092-.036-.347.118-.05.045v.066l.63 1.018a333.84 333.84 0 01-.665 1.553v.082l.06.026h.025l.347-.118.045-.041c.148-.363.293-.722.441-1.082.146.255.288.512.43.767l.088.035.35-.102.05-.045v-.07c-.242-.381-.466-.753-.69-1.122zm2.547-1.613l-.123-.166a.58.58 0 00-.243-.117l-.041-.016a.836.836 0 00-.316.015h-.072a.997.997 0 00-.29.118l-.111.064-.101.089-.123.137-.035.047a.977.977 0 00-.148.319c-.031.103-.046.21-.045.318v1.05c-.001.107.014.214.045.317.029.1.083.19.157.261l.026.016a.63.63 0 00.262.121h.116c.096-.002.19-.017.281-.044a1.147 1.147 0 00.616-.385 1.095 1.095 0 00.24-.684v-1.079a.848.848 0 00-.05-.299l-.045-.082zm-.388.595v.995l-.032.178-.088.15-.13.114-.151.07h-.19l-.107-.05-.063-.118-.022-.185V25.55l.019-.146.066-.156.117-.134.205-.098h.184l.11.073.06.108.022.118v.117zm2.38.018l-.145-.12.113-.146.108-.23.04-.117v-.023l.07-.26.142-.547v-.07l-.07-.026-.315.057-.057.058-.145.528-.076.27-.085.194h-.016l-.085.105-.11.067-.12.032-.2.044V24.22l-.027-.06h-.064l-.315.072-.063.073v2.622l.028.06.047.016h.016l.316-.073.06-.076V25.72l.252-.054h.136l.091.02.092.079.076.168.208.748.088.054.345-.06.047-.039v-.06l-.23-.796a1.033 1.033 0 00-.152-.33zm2.324-.016a1.172 1.172 0 00-.152-.34l-.148-.127.107-.13c.053-.087.096-.18.127-.277l.031-.086.2-.738v-.134l-.067-.022-.316.038-.066.058-.016.06-.202.725-.044.099-.035.086-.104.114-.107.06h-.032l-.088.023-.205.032v-1.053l-.029-.06h-.063l-.133.022-.198.035-.064.076v2.631l.026.06.05.02.335-.055.063-.076v-1.13l.246-.038h.133l.104.029.088.083.05.098.03.077.21.76.083.05.13-.015.217-.029.054-.035v-.063l-.045-.153-.17-.675zm2.12-2.06a37.46 37.46 0 00-1.474.143l-.07.073v2.627l.032.058h.05c.26-.029.525-.051.79-.073.265-.023.451-.048.678-.067l.07-.077v-.318l-.025-.057-.057-.02-.713.064-.348.032v-.728l.234-.02.675-.063.07-.076v-.28l-.022-.054-.057-.02-.265.026-.499.045h-.136v-.706l1.073-.096.07-.08v-.292l-.025-.057-.05.016zm2.28-.124h-.316l-.066.04-.23.433c-.143.268-.285.535-.43.802v.016l-.145.286-.133.251v-1.704l-.022-.055-.057-.022-.315.02-.073.079v2.62l.022.058.054.022h.047l.275-.015.063-.042.445-.836c.066-.125.13-.248.196-.37l.053-.101.095-.181.16-.319v1.709l.023.057.054.022h.337l.076-.076v-2.625l-.025-.057-.088-.012zm-1.361-.144l.196.124c.078.03.162.045.246.042h.04a.682.682 0 00.285-.067l.186-.14.107-.178.041-.181-.018-.058-.06-.025h-.266l-.075.076v.051l-.041.054-.067.048-.098.019h-.069l-.063-.038-.041-.054v-.051l-.076-.07h-.28l-.096.08.038.184.11.184zm4.525.407a.975.975 0 00-.65-.245l-.792-.022-.053.023-.026.054v2.624l.076.076h.316l.053-.022.022-.057v-.974h.607l.192-.044.18-.102.092-.08.129-.203.028-.064v-.057c.02-.084.031-.17.032-.258a1.055 1.055 0 00-.088-.445l-.117-.204zm-.255.783v.032l-.054.111-.12.083-.167.025h-.417v-.855h.433c.097 0 .19.04.259.108a.487.487 0 01.091.318l-.025.178zm2.346-.566a.893.893 0 00-.271-.223 1.078 1.078 0 00-.398-.114.94.94 0 00-.413.047.63.63 0 00-.278.185l-.086.114-.072.156a.934.934 0 00-.05.293v1.05c0 .115.017.23.047.34a.86.86 0 00.435.54c.126.065.264.101.404.11h.155l.202-.026a.77.77 0 00.284-.15.674.674 0 00.19-.258.932.932 0 00.066-.35v-1.116a.916.916 0 00-.215-.598zm-.28.824v.862l-.032.159-.082.111-.092.048-.025.016h-.158l-.196-.054-.13-.108-.072-.156-.025-.194V24.2l.019-.137.063-.124.123-.092.14-.029h.06l.195.064.126.124.066.143.022.127-.003.277zm1.38.283v-.41l.029-.147.072-.108.12-.067h.17a.5.5 0 01.26.115l.129.216.092.057.315-.066.05-.042v-.06l-.075-.166a.82.82 0 00-.227-.283l-.228-.137a1.09 1.09 0 00-.293-.089 1.018 1.018 0 00-.373 0l-.176.074-.11.073a.706.706 0 00-.178.257.917.917 0 00-.06.318v1.101a.924.924 0 00.237.636l.117.108.16.105c.113.06.235.097.36.112h.174a.797.797 0 00.357-.077.565.565 0 00.316-.356v-.025l-.035-.093-.316-.159h-.066l-.019.023-.022.025-.123.165a.36.36 0 01-.246.032l-.177-.057-.13-.108-.078-.143-.029-.16v-.664h.003zm2.046-.087l.028-.142.038-.054.032-.051.117-.057h.167a.503.503 0 01.23.108l.032.019c.064.06.11.14.13.226l.028.038h.17l.196-.032.053-.035v-.064l-.069-.152a.978.978 0 00-.23-.318 1.12 1.12 0 00-.518-.245.852.852 0 00-.37 0 .629.629 0 00-.287.13.615.615 0 00-.176.248l-.048.185V25.8a1 1 0 00.505.879c.111.063.232.107.357.13l.227.025a.783.783 0 00.316-.06.553.553 0 00.316-.366l-.035-.092-.316-.175h-.066l-.044.05-.117.157a.376.376 0 01-.243.019l-.177-.067-.126-.118-.082-.146-.029-.162v-1.117l-.009-.006zm3.097-.104l-.072.032-.101.168-.13.207-.413.668-.281.474V24.45l-.057-.076-.316-.074h-.066l-.028.06v2.625l.06.076.315.074.086-.035.675-1.104.25-.41v1.743l.056.076h.038l.063.02.174.044.05.016h.067l.031-.06v-2.628l-.057-.073-.344-.077zm2.364.7l-.088.032c-.215.334-.423.668-.631 1.005l-.275.452v-1.75l-.06-.076-.316-.096h-.07l-.03.06v2.628l.053.073.316.093.088-.032c.221-.36.445-.713.666-1.063l.243-.397v1.752l.054.074.315.108h.07l.031-.064v-2.621l-.05-.073-.316-.105zM38.501 46.35c-.114-.29-.502-.382-.947-.818-.218-.225-.16-.429-.237-.636a12.721 12.721 0 00-.864-2.128 3.426 3.426 0 00-.209-.318c-.208-.296-.372-.375-.394-.636-.057-.598-.36-.97-.398-1.17-.038-.201.218-.45.13-.621a16.488 16.488 0 01-1.165-2.993c-.101-.36-.698-.611-.698-.93l-.053-.165c-.124-.206-.427-.34-.423-.372a3.283 3.283 0 000-1.377c-.14-.617-.887-1.228-2.04-2.049.041-.318.196-1.123.124-1.333l-.117-.197a1.778 1.778 0 00-.246-.703c-.12-.137-.206-.073-.414-.07a.86.86 0 01-.426-.089c-.268-.178-.612-.162-1 .375-.064.09-.165.112-.206.214a2.886 2.886 0 00-.16.661c-.048.385 0 .455-.03.57-.447-.02-1.038 0-1.211.127-1.212.894-1.916 2.526-1.73 2.688.186.162.29 1.209.363 1.705 0 0-.293.067-.233.248l.12.36-.048.244c.038.214.11.42.215.611.063.105.164.083.18.137.407 1.457 1.177 1.45 1.177 1.45v.573c-.287.375-.742 1.05-.745 1.31l.029.087c.12.12.205.168.189.26a.57.57 0 01-.221.217.268.268 0 00.07.394c.204.06.419.077.63.054l-.249 5.487c0 .073-.04.226-.176.105a4.516 4.516 0 01-.59-.738.497.497 0 00-.152-.162c-.08-.035-.114.054-.13.156a1.99 1.99 0 00.054.802l.057.108c.219.281.514.493.849.61.354.128.37-.098.391-.744 0-.318.149-3.216.284-5.681l.136-.048a3.467 3.467 0 001.133-1.196c.13.37.123 1.183.29 1.384.231.277.316.181.518.725.048.13.521.3.723.636.448.764 1.998 1.67 2.478 1.87.164.067.357-.104.442.128.117.318.16.299.315.356.155.057.161.512.43.71.268.197.568.095.814.203.246.108.524.465.565.44.041-.026-.158-.35-.271-.637a.659.659 0 010-.375c.135-.745-.72-1.158-.837-1.486-.199-.547-.316-.242-.477-.5-.48-.696-.858-1.463-1.439-1.908-.136-.102-.28-.092-.315-.14a4.862 4.862 0 00-.316-.668c-.057-.086.1-.398-.025-.585a.736.736 0 01-.127-.433c-.019-.687.073-.26.23.064.181.43.402.843.66 1.23.086.087.244-.031.316.08.273.466.633.873 1.06 1.2.108.082.168.416.515.916.714 1.024 1.458 1.508 1.66 2.045.044.125.108.242.19.347.145.168.28.165.416.366.196.286.449.56.66.582.212.022.297-.07.461-.045.164.026.666.41.7.392.035-.02-.315-.563-.315-.703.032-.188.133-.401.06-.573zm-10.627-9.721c-.08-.108-.048-.474-.092-.541l-.133-.184c.022-.356.07-.709.146-1.057.031.637.946 2.901.946 2.901s-.792-1.014-.867-1.12z" fill="#E7E3CC"/></svg>568C19.9486 9.44261 19.8927 9.6722 19.8921 9.90533C19.8921 11.0123 20.6875 12.132 20.9526 12.4692H23.1495Z" fill="#E7E3CC"/>
<path d="M53.2314 46.7731C53.0922 46.5413 52.8961 46.3496 52.6619 46.2166C52.4278 46.0836 52.1635 46.0137 51.8947 46.0137C51.6259 46.0137 51.3616 46.0836 51.1274 46.2166C50.8933 46.3496 50.6971 46.5413 50.558 46.7731L51.8931 49.2352L53.2314 46.7731Z" fill="#E7E3CC"/>
<path d="M19.2126 26.4497L19.8439 25.0278V24.9451L19.765 24.9228L19.4115 25.0278L19.3641 25.0723L18.9664 26.0457L18.5908 25.3554L18.4993 25.3204L18.1521 25.4381L18.1016 25.4826V25.5495L18.7329 26.5674C18.5119 27.0859 18.291 27.6012 18.0669 28.1197V28.2024L18.1268 28.2278H18.1521L18.4993 28.1101L18.5435 28.0688C18.6918 27.7062 18.837 27.3467 18.9854 26.9872C19.1306 27.2417 19.2726 27.4994 19.4146 27.7539L19.503 27.7889L19.8534 27.6871L19.9039 27.6425V27.5726C19.6608 27.1908 19.4367 26.8187 19.2126 26.4497Z" fill="#E7E3CC"/>
<path d="M21.76 24.8366L21.6369 24.6712C21.5661 24.6133 21.4829 24.573 21.3938 24.5535L21.3528 24.5376C21.2475 24.5228 21.1404 24.5282 21.0372 24.5535H20.9646C20.8622 24.5772 20.7642 24.6169 20.6742 24.6712L20.5637 24.7349L20.4627 24.8239L20.3396 24.9607L20.3049 25.0084C20.2367 25.1045 20.1864 25.2123 20.1565 25.3265C20.1258 25.4297 20.1109 25.5369 20.1123 25.6446V26.6943C20.1107 26.802 20.1257 26.9093 20.1565 27.0124C20.1856 27.1118 20.24 27.2017 20.3144 27.2733L20.3396 27.2892C20.4165 27.3493 20.5062 27.3907 20.6016 27.4101H20.6742H20.7184C20.8135 27.4078 20.908 27.3929 20.9993 27.3655C21.1211 27.3359 21.2373 27.2865 21.3433 27.2192C21.4462 27.1553 21.538 27.0747 21.6148 26.9806C21.6924 26.8863 21.7523 26.7785 21.7915 26.6625C21.8332 26.5451 21.8545 26.4214 21.8546 26.2967V25.2183C21.8559 25.1164 21.8388 25.0151 21.8042 24.9193L21.76 24.8366ZM21.3717 25.4315V26.4271L21.3402 26.6053L21.2518 26.7548L21.1224 26.8693L20.9709 26.9393H20.7815L20.6742 26.8884L20.6111 26.7707L20.589 26.5862V25.5492L20.6079 25.4029L20.6742 25.247L20.791 25.1134L20.9961 25.0148H21.1097H21.1792L21.2897 25.0879L21.3496 25.1961L21.3717 25.3138V25.4315Z" fill="#E7E3CC"/>
<path d="M23.752 25.4507L23.6068 25.3298L23.7204 25.1835L23.8278 24.9544L23.8688 24.8367V24.8145L23.9382 24.5536L24.0803 24.0065V23.9365L24.0108 23.9111L23.6952 23.9683L23.6384 24.0256L23.4932 24.5536L23.4174 24.824L23.3322 25.0181H23.3164L23.2312 25.123L23.1207 25.1898L23.0008 25.2216L22.8019 25.2662V24.2196L22.7735 24.1592H22.7104L22.3948 24.2324L22.3316 24.3055V26.9266L22.3601 26.9871L22.4074 27.003H22.4232L22.7388 26.9298L22.7988 26.8535V25.7211L23.0513 25.667H23.187L23.2785 25.6861L23.3701 25.7656L23.4458 25.9342L23.6542 26.6817L23.7425 26.7358L24.0866 26.6754L24.1339 26.6372V26.5767L23.9035 25.7815C23.8729 25.663 23.8216 25.551 23.752 25.4507Z" fill="#E7E3CC"/>
<path d="M26.076 25.4345C26.0439 25.3136 25.9927 25.1987 25.9244 25.0942L25.7761 24.967L25.8834 24.8365C25.9361 24.7496 25.9785 24.6567 26.0097 24.5598L26.0412 24.4739L26.2401 23.7359V23.6755V23.6023L26.1738 23.58L25.8582 23.6182L25.7919 23.6755L25.7761 23.7359L25.5741 24.4612L25.5299 24.5598L25.4952 24.6457L25.391 24.7602L25.2837 24.8206H25.2521L25.1638 24.8429L24.9586 24.8747V23.8218L24.9302 23.7613H24.8671L24.7345 23.7836L24.5356 23.8186L24.4725 23.895V24.8493V26.5256L24.4978 26.5861L24.5483 26.6052L24.8828 26.5511L24.946 26.4747V25.3455L25.1922 25.3073H25.3058H25.3247L25.4289 25.3359L25.5173 25.4186L25.5678 25.5173L25.5962 25.5936L25.8077 26.3539L25.8897 26.4048L26.0191 26.3888L26.2369 26.3602L26.2906 26.3252V26.2616L26.2464 26.1089L26.076 25.4345Z" fill="#E7E3CC"/>
<path d="M28.1962 23.3736C27.7038 23.4118 27.2082 23.4595 26.7221 23.5167L26.6527 23.5899V26.2174L26.6843 26.2746H26.7348C26.9936 26.246 27.2587 26.2238 27.5238 26.2015C27.789 26.1792 27.9752 26.1538 28.2025 26.1347L28.2719 26.0583V25.7402L28.2467 25.683L28.1898 25.6639L27.4765 25.7275L27.1293 25.7593V25.0309L27.3629 25.0118L28.0383 24.9482L28.1078 24.8718V24.5919L28.0857 24.5378L28.0289 24.5187L27.7637 24.5442L27.265 24.5887H27.1293V23.8825L28.2025 23.7871L28.2719 23.7076V23.4149L28.2467 23.3577L28.1962 23.3736Z" fill="#E7E3CC"/>
<path d="M30.4755 23.2495H30.1599L30.0936 23.2908L29.8632 23.7234C29.7212 23.9906 29.5791 24.2578 29.4339 24.525V24.5409L29.2887 24.8272L29.1562 25.0785V23.3735L29.1341 23.3194L29.0773 23.2972L28.7616 23.3163L28.689 23.3958V26.0169L28.7111 26.0742L28.7648 26.0964H28.8121L29.0867 26.0805L29.1499 26.0392L29.5949 25.2026C29.6612 25.0785 29.7243 24.9545 29.7906 24.8336L29.8443 24.7318L29.939 24.5505L30.0999 24.2324V25.9406L30.122 25.9978L30.1757 26.0201H30.5134L30.5892 25.9438V23.3194L30.5639 23.2622L30.4755 23.2495Z" fill="#E7E3CC"/>
<path d="M29.1148 23.1063L29.3105 23.2304C29.389 23.2606 29.4727 23.2746 29.5567 23.2718H29.5977C29.6961 23.2703 29.793 23.2475 29.8818 23.205L30.068 23.065L30.1754 22.8869L30.2164 22.7056L30.1975 22.6483L30.1375 22.6228H29.8723L29.7966 22.6992V22.7501L29.7556 22.8042L29.6893 22.8519L29.5914 22.871H29.522L29.4589 22.8328L29.4178 22.7787V22.7278L29.3421 22.6578H29.0611L28.9665 22.7374L29.0043 22.9219L29.1148 23.1063Z" fill="#E7E3CC"/>
<path d="M33.6407 23.5134C33.4609 23.3545 33.2296 23.2673 32.9905 23.2685L32.1982 23.2462L32.1446 23.2685L32.1193 23.3226V25.9469L32.1951 26.0233H32.5107L32.5644 26.001L32.5864 25.9437V24.9703H32.9842H33.1925L33.385 24.9258L33.5649 24.824L33.6565 24.7445L33.7859 24.5409L33.8143 24.4773V24.42C33.8345 24.3356 33.8451 24.2492 33.8459 24.1624C33.8491 24.0092 33.8189 23.8572 33.7575 23.717L33.6407 23.5134ZM33.385 24.296V24.3278L33.3314 24.4391L33.2114 24.5218L33.0441 24.5473H33.0126H32.6275V23.6916H33.0031H33.0599C33.1569 23.6923 33.2497 23.7311 33.3187 23.7997C33.3854 23.8916 33.4179 24.0043 33.4103 24.1178L33.385 24.296Z" fill="#E7E3CC"/>
<path d="M35.7312 23.73C35.6562 23.6384 35.5639 23.5627 35.4597 23.5073C35.3357 23.4438 35.2006 23.4049 35.062 23.3928C34.9224 23.3776 34.7811 23.3939 34.6485 23.4405C34.5412 23.4759 34.4453 23.5396 34.3708 23.625L34.2855 23.7395L34.213 23.8954C34.1807 23.9896 34.1636 24.0884 34.1625 24.1881V25.2378C34.1636 25.3528 34.1795 25.4672 34.2098 25.5782C34.2407 25.6944 34.2956 25.8028 34.3708 25.8963C34.4456 25.9892 34.5392 26.0651 34.6454 26.1189C34.7713 26.1825 34.9088 26.2193 35.0494 26.2271H35.1567H35.2041L35.4061 26.2016C35.5102 26.1726 35.607 26.1216 35.6901 26.0521C35.7729 25.9828 35.8379 25.8944 35.8795 25.7945C35.9239 25.6832 35.9464 25.5644 35.9458 25.4446V24.328C35.946 24.2197 35.9278 24.1121 35.8921 24.0099C35.8554 23.9077 35.8009 23.8129 35.7312 23.73ZM35.4502 24.5539V25.4159L35.4187 25.575L35.3366 25.6863L35.2451 25.734L35.2198 25.7499H35.062L34.8663 25.6958L34.7369 25.5877L34.6643 25.4318L34.6391 25.2378V24.2008L34.658 24.064L34.7211 23.94L34.8442 23.8477L34.9831 23.8191H35.0431L35.2388 23.8827L35.365 24.0067L35.4313 24.1499L35.4534 24.2771L35.4502 24.5539Z" fill="#E7E3CC"/>
<path d="M36.8313 24.8368V24.4265L36.8597 24.2801L36.9323 24.172L37.0523 24.1052H37.2227C37.3181 24.1176 37.4079 24.1573 37.4815 24.2197L37.6109 24.436L37.7025 24.4933L38.0181 24.4265L38.0686 24.3851V24.3247L37.9929 24.1592C37.9391 24.0489 37.8614 23.9522 37.7656 23.8762L37.5383 23.7394C37.4451 23.696 37.3463 23.666 37.2448 23.6503C37.1217 23.6274 36.9955 23.6274 36.8723 23.6503L36.6956 23.7235L36.5851 23.7966C36.5078 23.8681 36.4474 23.9561 36.4084 24.0543C36.3697 24.1559 36.3494 24.2636 36.3484 24.3724V25.473C36.3438 25.7077 36.4285 25.9354 36.5851 26.1092L36.7019 26.2174L36.8629 26.3223C36.9752 26.3811 37.0971 26.4188 37.2227 26.4337H37.3963C37.5194 26.4362 37.6415 26.41 37.753 26.3573C37.8281 26.3245 37.8952 26.2757 37.9497 26.2142C38.0042 26.1526 38.0448 26.0799 38.0686 26.0011V25.9756L38.0339 25.8834L37.7183 25.7243H37.652L37.633 25.7466L37.6109 25.772L37.4878 25.9374C37.412 25.9769 37.3249 25.9881 37.2416 25.9692L37.0649 25.912L36.9355 25.8038L36.8566 25.6607L36.8282 25.5016V24.8368H36.8313Z" fill="#E7E3CC"/>
<path d="M38.877 24.7509L38.9054 24.6078L38.9433 24.5537L38.9748 24.5028L39.0916 24.4456H39.2589C39.3436 24.4612 39.4229 24.4985 39.4893 24.5537L39.5209 24.5728C39.5851 24.6336 39.6301 24.7122 39.6503 24.7986L39.6787 24.8368H39.7387H39.8491L40.0448 24.805L40.0985 24.77V24.7064L40.0291 24.5537C39.9745 24.433 39.8961 24.3248 39.7987 24.2356C39.65 24.1104 39.4716 24.026 39.281 23.9907C39.1594 23.9637 39.0334 23.9637 38.9117 23.9907C38.8066 24.009 38.7077 24.0539 38.6245 24.1211C38.5458 24.1875 38.485 24.2728 38.4477 24.3692L38.4004 24.5537V24.7V25.8007C38.399 25.921 38.4193 26.0407 38.4604 26.1537C38.4996 26.2633 38.5585 26.3646 38.634 26.4528C38.7096 26.5445 38.8017 26.6211 38.9054 26.6786C39.0161 26.7422 39.1367 26.7863 39.2621 26.809L39.4893 26.8345C39.5975 26.8364 39.705 26.8158 39.805 26.774C39.8816 26.741 39.9497 26.6909 40.0044 26.6276C40.059 26.5642 40.0988 26.4892 40.1206 26.4082L40.0859 26.316L39.7702 26.141H39.704L39.6598 26.1919L39.543 26.3478C39.4663 26.381 39.3808 26.3877 39.2999 26.3669L39.1232 26.3001L38.9969 26.1824L38.9149 26.0361L38.8865 25.8738V24.7573L38.877 24.7509Z" fill="#E7E3CC"/>
<path d="M41.9742 24.6461L41.9016 24.6779L41.8006 24.8465L41.6712 25.0533L41.2577 25.7213L40.9768 26.1953V24.4489L40.92 24.3726L40.6044 24.2994H40.5381L40.5097 24.3598V26.9841L40.5697 27.0605L40.8853 27.1337L40.9705 27.0987L41.646 25.9949L41.8953 25.5845V27.3277L41.9521 27.404H41.99L42.0532 27.4231L42.2267 27.4677L42.2772 27.4836H42.2962H42.3435L42.3751 27.4231V24.7956L42.3183 24.7225L41.9742 24.6461Z" fill="#E7E3CC"/>
<path d="M44.3382 25.3459L44.2498 25.3777C44.0352 25.7117 43.8269 26.0457 43.6186 26.3829L43.344 26.8346V25.085L43.284 25.0087L42.9683 24.9133H42.8989L42.8673 24.9737V27.6012L42.921 27.6744L43.2366 27.7666L43.325 27.7348C43.546 27.3753 43.7701 27.0222 43.991 26.6723L44.2341 26.2747V28.0274L44.2877 28.1006L44.6033 28.2088H44.6254H44.6728L44.7044 28.1451V25.524L44.6539 25.4508L44.3382 25.3459Z" fill="#E7E3CC"/>
<path d="M38.501 46.3499C38.3874 46.0604 37.9992 45.9682 37.5541 45.5324C37.3363 45.3066 37.3931 45.103 37.3174 44.8962C37.0937 44.1619 36.8043 43.4496 36.4525 42.7681C36.3894 42.66 36.32 42.5518 36.2442 42.45C36.0359 42.1542 35.8718 42.0747 35.8497 41.8138C35.7929 41.2158 35.4898 40.8436 35.452 40.6432C35.4141 40.4428 35.6698 40.1947 35.5814 40.0229C35.0969 39.066 34.7068 38.0634 34.4167 37.0296C34.3157 36.6702 33.7191 36.4189 33.7191 36.1008L33.6655 35.9354C33.5424 35.7286 33.2393 35.595 33.2425 35.5632C33.3399 35.1093 33.3399 34.6397 33.2425 34.1858C33.1036 33.5687 32.3556 32.9579 31.2035 32.1373C31.2445 31.8192 31.3992 31.0144 31.3266 30.8044L31.2098 30.6072C31.1782 30.3579 31.0943 30.1183 30.9636 29.9042C30.8437 29.7674 30.7584 29.831 30.5501 29.8342C30.4029 29.8416 30.2562 29.811 30.124 29.7452C29.8557 29.567 29.5117 29.5829 29.1234 30.1205C29.0603 30.2096 28.9593 30.2318 28.9183 30.3336C28.8391 30.5471 28.7851 30.7692 28.7573 30.9953C28.71 31.3802 28.7573 31.4502 28.7289 31.5647C28.2807 31.5456 27.6904 31.5647 27.5168 31.6919C26.3048 32.5858 25.6009 34.2176 25.7872 34.3798C25.9734 34.5421 26.0775 35.5886 26.1501 36.0849C26.1501 36.0849 25.8566 36.1517 25.9166 36.333L26.0365 36.6924L25.9892 36.9374C26.0271 37.1514 26.0996 37.3577 26.2038 37.5481C26.2669 37.6531 26.3679 37.6308 26.3837 37.6849C26.7909 39.1418 27.561 39.1354 27.561 39.1354V39.708C27.2738 40.0834 26.8193 40.7577 26.8161 41.0186L26.8445 41.1045C26.9645 41.2253 27.0497 41.2731 27.0339 41.3653C26.9814 41.4565 26.905 41.5314 26.813 41.5816C26.7896 41.6113 26.7727 41.6456 26.7635 41.6823C26.7542 41.719 26.7528 41.7573 26.7594 41.7946C26.766 41.8319 26.7803 41.8674 26.8015 41.8987C26.8228 41.9299 26.8503 41.9563 26.8824 41.9761C27.0874 42.0351 27.3018 42.0534 27.5137 42.0301L27.2643 47.5174C27.2643 47.5905 27.2233 47.7432 27.0876 47.6223C26.8657 47.3978 26.6679 47.1505 26.4973 46.8843C26.4596 46.8194 26.4078 46.764 26.3458 46.7221C26.2669 46.6871 26.2322 46.7762 26.2164 46.878C26.1796 47.1461 26.1979 47.4189 26.2701 47.6796L26.3269 47.7877C26.5459 48.0692 26.8407 48.2812 27.176 48.3985C27.5295 48.5257 27.5453 48.2999 27.5673 47.6541C27.5673 47.336 27.7157 44.4381 27.8514 41.9729L27.9872 41.9252C28.4548 41.6241 28.8435 41.2138 29.1203 40.7291C29.2497 41.0981 29.2434 41.9124 29.4107 42.1128C29.6411 42.3896 29.7263 42.2942 29.9283 42.8381C29.9757 42.9685 30.4491 43.1371 30.6511 43.4743C31.0993 44.2377 32.6491 45.1443 33.1289 45.3447C33.293 45.4115 33.4856 45.2398 33.5708 45.472C33.6876 45.7901 33.7318 45.771 33.8864 45.8283C34.0411 45.8855 34.0474 46.3404 34.3157 46.5376C34.584 46.7348 34.8838 46.633 35.13 46.7412C35.3762 46.8493 35.654 47.2056 35.695 47.1802C35.736 47.1547 35.5372 46.8303 35.4236 46.544C35.3872 46.4215 35.3872 46.291 35.4236 46.1686C35.5593 45.4242 34.7039 45.0107 34.5871 44.6831C34.3883 44.136 34.2715 44.4413 34.1105 44.1837C33.6307 43.487 33.252 42.7204 32.6712 42.2751C32.5355 42.1733 32.3903 42.1828 32.3556 42.1351C32.2674 41.9047 32.1619 41.6813 32.0399 41.4671C31.9831 41.3812 32.1409 41.0695 32.0147 40.8818C31.9284 40.7546 31.8843 40.6032 31.8884 40.4492C31.8695 39.7621 31.961 40.1883 32.1188 40.5128C32.2995 40.9433 32.5204 41.3555 32.7785 41.7439C32.8637 41.8297 33.0216 41.712 33.0942 41.8234C33.3672 42.2887 33.7274 42.696 34.1547 43.0226C34.262 43.1053 34.322 43.4393 34.6692 43.9387C35.3825 44.963 36.1274 45.4465 36.3294 45.9841C36.3733 46.1093 36.4373 46.2265 36.5188 46.3308C36.664 46.4994 36.7997 46.4963 36.9355 46.6967C37.1312 46.9829 37.3837 47.2565 37.5951 47.2788C37.8066 47.3011 37.8918 47.2088 38.056 47.2342C38.2201 47.2597 38.722 47.6446 38.7567 47.6255C38.7914 47.6064 38.4411 47.0625 38.4411 46.9225C38.4726 46.7348 38.5736 46.5217 38.501 46.3499ZM27.8735 36.6288C27.7946 36.5207 27.8262 36.1548 27.782 36.088L27.6494 35.9036C27.6714 35.5483 27.7199 35.1953 27.7946 34.8475C27.8262 35.4837 28.7415 37.7485 28.7415 37.7485C28.7415 37.7485 27.9493 36.7338 27.8735 36.6288Z" fill="#E7E3CC"/>
</svg>
